<svg id="Capa_1" data-name="Capa 1" xmlns="http://www.w3.org/2000/svg" viewBox="0 0 498.55275 134.97555"><defs><style>.cls-1,.cls-2,.cls-3{fill:#3c8dbd;}.cls-2{font-size:15.57832px;}.cls-2,.cls-3{font-family:Garamond-Bold, Garamond;font-weight:700;}.cls-3{font-size:19.67787px;}.cls-4{letter-spacing:-0.01903em;}.cls-5{letter-spacing:-0.07422em;}.cls-6{fill:#fff;}.cls-7{fill:#1d1d1b;}</style></defs><path class="cls-1" d="M337.98972,52.66936a52.67592,52.67592,0,1,1,52.52674,52.6825C361.54254,105.27156,337.83674,81.5886,337.98972,52.66936Zm35.87247-.04992q0,23.229-.019,46.458a1.50329,1.50329,0,0,0,1.19813,1.72946,50.05677,50.05677,0,0,0,25.03749,1.56016,49.32377,49.32377,0,0,0,29.4776-17.47431c9.85338-11.99981,13.50632-25.79982,10.87315-41.105A48.97326,48.97326,0,0,0,423.86234,14.5961,49.60465,49.60465,0,0,0,393.83741,2.18391a48.36761,48.36761,0,0,0-18.42706,2.30985c-1.54014.50156-1.54791.48447-1.548,2.08531Q373.86152,29.59926,373.86219,52.61944Zm-19.96535,8.35649c-1.98636,1.56786-2.11112,2.63686-.59765,4.59117a3.22793,3.22793,0,0,0,.762.85031c2.1232,1.26661,2.75158,3.11877,2.49389,5.50994a2.83859,2.83859,0,0,0,1.79395,2.97073,12.13883,12.13883,0,0,1,6.60213,8.29479,2.34614,2.34614,0,0,1-.21789,1.79911,22.08518,22.08518,0,0,1-3.33109,4.26479c-.27018.28716-.68744.48539-.71632,1.02507a20.75183,20.75183,0,0,0,2.8901.12544,1.93065,1.93065,0,0,0,2.03426-1.06672,47.36883,47.36883,0,0,1,6.066-8.08309c1.43955-1.48656.92568-3.07062.98593-4.92443-1.13052,1.09076-1.745,2.38876-3.13041,2.76607-.77188-2.60515-.88953-4.98337,1.19476-7.03943a2.81621,2.81621,0,0,0,.37451-3.31377,26.067,26.067,0,0,0-1.6475-2.84263c2.77245-2.66669,2.75975-5.90327,1.89735-9.30133a1.82929,1.82929,0,0,1-.02807-1.02469,11.32372,11.32372,0,0,0-1.08285-8.86405,1.3461,1.3461,0,0,1,.08953-1.54,7.112,7.112,0,0,0,1.02431-2.60584,5.031,5.031,0,0,0-2.54386-5.55785,2.05063,2.05063,0,0,0-3.17012,1.62358,12.86133,12.86133,0,0,0,.19653,2.78516c-.4362.3016-1.11721.37225-1.22917.91851-.28415,1.38652-1.48874,1.3851-2.68072,1.99638.44071-.66283.6992-1.06921.97527-1.46326.62966-.89874.92189-1.80792.10706-2.75693-.2766-.32215-.16047-.64209-.04249-.97744a1.62038,1.62038,0,0,0-.77308-2.04952c-.50576-.34291-1.15017-.52366-1.443-1.12309a2.60411,2.60411,0,0,1,.5234-1.03049,8.751,8.751,0,0,0,1.26445-3.39624,2.9191,2.9191,0,0,0-1.32348-3.06709,2.86211,2.86211,0,0,0-3.24559.20628,4.79716,4.79716,0,0,0-1.90466,2.54138,8.28177,8.28177,0,0,0-.29672,4.12038,1.22606,1.22606,0,0,1-.72413,1.56369,5.63746,5.63746,0,0,0-3.188,6.67884c.27311,1.45807.66039,2.89476.98578,4.29733a.72042.72042,0,0,1-.62967.21371c-2.35452.11486-3.06867,1.04021-2.6241,3.37644a16.42431,16.42431,0,0,0,1.61476,4.39045C352.07088,57.55782,352.97942,59.23774,353.89684,60.97593Zm-8.97446,5.49066c1.39475-1.52117,2.61409-2.84073,3.81917-4.17319.27159-.3003.6687-.57562.573-1.05452a9.58741,9.58741,0,0,0-.83606-2.8595c-1.948.47566-3.86442.94478-5.78145,1.41137-2.115.51476-2.23273.76354-1.30537,2.78138.01317.02867.05117.04593.20411.1767l4.84557-1.36184c-1.15334,1.55244-2.41187,2.93051-3.66185,4.31628-.49086.54421-.23147,3.05836.36109,3.45291a.69789.69789,0,0,0,.492.09037c2.38952-.56423,4.7753-1.14427,7.168-1.72216a5.21575,5.21575,0,0,0-.63362-2.50669ZM355.624,88.73616a37.42346,37.42346,0,0,0,4.0973-3.41705,2.69514,2.69514,0,0,0,.49577-3.10773,7.95951,7.95951,0,0,0-3.27547-3.81248,2.803,2.803,0,0,0-2.89176-.20267,33.50954,33.50954,0,0,0-4.50728,3.54231,9.0045,9.0045,0,0,0,1.86007,2.12518c1.20165-.98457,2.32492-1.91316,3.45761-2.83011a1.47536,1.47536,0,0,1,2.22148.068c.99467.9925.98319,1.84956-.12692,2.80376-1.0481.9009-2.12213,1.77166-3.2174,2.68283A8.58537,8.58537,0,0,0,355.624,88.73616Zm-2.86251-60.68994a14.26794,14.26794,0,0,0,1.65475-3.04205,2.55785,2.55785,0,0,0-.92261-2.78741,2.17917,2.17917,0,0,0-2.72134-.01555c-1.78584,1.30093-2.641,3.31348-3.93046,4.9575a40.85436,40.85436,0,0,0,6.588,4.71036,8.42609,8.42609,0,0,0,1.41-2.19174Zm-2.90329,13.135A2.5917,2.5917,0,0,0,348.009,40.805c-.1613.79058-.32764,1.56518-.47653,2.34313-.46253,2.41683-.17931,2.10361-2.44363,1.67081A24.67848,24.67848,0,0,0,341.18444,44.1a5.273,5.273,0,0,0-.49389,1.80171c-.1763.61029.0287.97947.69874,1.11565,2.10978.42881,4.21241.89275,6.31844,1.34008.40589.08621.79062.08056.88876-.43676C349.02187,45.67865,349.43726,43.43472,349.85819,41.18124Zm4.07342,33.44291c-1.25128-2.80922-1.25911-2.76724-2.89431-1.43477a6.87155,6.87155,0,0,0,1.33636,2.25485A3.80467,3.80467,0,0,0,353.93161,74.62415Zm-5.479-36.123a2.81612,2.81612,0,0,0,1.72461.59533,9.41632,9.41632,0,0,0,.81446-2.48029c-1.58782-.93756-1.69693-.90264-2.26986.71189A2.40472,2.40472,0,0,0,348.45265,38.50111Zm11.34894-15.08355a3.14264,3.14264,0,0,0-1.34483-1.288,9.05752,9.05752,0,0,0-1.817,1.91748,3.36,3.36,0,0,0,1.49163,1.36065c.40183-.46508.81156-.93433,1.21509-1.40885C359.50019,23.81813,359.63968,23.62532,359.80159,23.41756ZM346.02747,54.5795c.02865.75869-.21715,1.54488.98729,1.56211,1.19932.01715.98673-.75014,1.0229-1.45626.04228-.82537.01073-1.5002-1.12982-1.49978C345.6909,53.186,346.13239,54.05033,346.02747,54.5795Z"/><path class="cls-1" d="M376.652,52.24284q-.00008-12.6336.00078-25.2672c.00026-1.391.00526-1.39778,1.38471-1.39791q24.597-.0024,49.194-.01985c1.02435-.00166,1.40172.25409,1.38464,1.3408-.05963,3.7926-.05039,7.58717.00176,11.38.01356.98677-.33015,1.22934-1.26649,1.22394q-17.75392-.10229-35.50818-.143c-1.68226-.00578-1.6837-.00042-1.68435,1.64808q-.00165,4.22861.001,8.4572c.002,1.39433.02052,1.41506,1.38854,1.41585,5.70965.00325,11.41948.0257,17.12876-.02024,1.04769-.00843,1.38524.28524,1.36923,1.35143-.05646,3.75788-.04735,7.51755.0026,11.27567.01312.98761-.26741,1.324-1.29058,1.31546-5.63971-.04691-11.28-.02743-16.92006-.02985-1.67659-.00072-1.67874.00058-1.67935,1.63133-.00143,3.75876-.02842,7.51786.01846,11.276.0121.97054-.22929,1.34264-1.272,1.32608q-5.482-.0871-10.96617-.00187c-.99346.01413-1.31249-.26765-1.30809-1.286C376.6679,69.22693,376.65206,60.73485,376.652,52.24284Z"/><path class="cls-1" d="M428.59118,65.05242c.00019,4.20808-.02459,8.4164.01891,12.624.01.96231-.21455,1.34333-1.26388,1.33041-4.3828-.05393-8.76689-.04622-13.14995-.00388-.92513.009-1.183-.28557-1.17989-1.19353q.04458-12.88488.0044-25.77c-.00205-.81755.18554-1.1814,1.09458-1.17367q6.67908.0567,13.35889.00146c.86955-.0066,1.138.2898,1.1317,1.14373C428.57355,56.35793,428.591,60.70525,428.59118,65.05242Z"/><path class="cls-1" d="M420.79959,49.33487c-2.22355.00024-4.44742-.02213-6.67043.01243-.77406.012-1.13385-.17558-1.11224-1.0446.05351-2.152.03833-4.3065.00622-6.45933-.01078-.72265.24451-.971.96854-.9673q6.82679.03453,13.65379-.00019c.74319-.00392.96329.28682.95455.98657-.02691,2.153-.033,4.30689.00283,6.4596.0128.76911-.25958,1.0376-1.02863,1.02538C425.31652,49.31152,423.05786,49.33464,420.79959,49.33487Z"/><path class="cls-1" d="M357.062,42.64546l.81641-3.07868a19.1949,19.1949,0,0,0,.39263,2.70016c.625.16176.825-.46311,1.51178-.69742-3.31234,3.97725-2.76285,8.38887-2.22639,12.95908,1.16883-.55893,1.39481-1.711,2.26729-2.479a2.82562,2.82562,0,0,1-.7726,2.09c-1.727,1.75836-1.36469,3.86988-1.17313,5.97489.24791,2.72443,1.2515,5.27,1.85752,7.90945a16.78181,16.78181,0,0,1,.542,3.49642,7.03674,7.03674,0,0,1-.85142-1.8787,8.76821,8.76821,0,0,1-.44957-1.27856,5.24254,5.24254,0,0,0-3.46874-4.18653,1.03544,1.03544,0,0,1-.79249-.69769c1.094-.04788,1.90863.77473,2.893.91964a1.10712,1.10712,0,0,0-.03322-.99363,16.5469,16.5469,0,0,1-1.00147-6.86594,1.59263,1.59263,0,0,0-.784-1.55645,5.95153,5.95153,0,0,1-2.09911-2.96668c1.066.57038,1.70393,1.48895,2.72176,1.72217.34-.23542.22358-.53485.2234-.797-.0017-2.43567-.05511-4.87245.0049-7.30648a2.80714,2.80714,0,0,0-.9579-2.58777,5.47122,5.47122,0,0,1-.74051-.93646C355.70454,42.244,356.23112,42.72362,357.062,42.64546Z"/><path class="cls-1" d="M367.30887,59.98714c.90132-.36912.83814-1.25814,1.60484-1.454a1.51953,1.51953,0,0,1-.47856,1.07324,5.371,5.371,0,0,0-1.0468,3.41222c.05374,1.80528-.00339,3.614-.02367,5.42118-.00332.296.09817.63873-.26171.85683-.6207-.10342-.44874-.612-.44069-.97782.03283-1.49308.07012-2.98762.17154-4.47716a2.96467,2.96467,0,0,0-1.40719-3.14123c.52549-.15041.875.18669,1.25207-.00681.30337-.33564.1436-.76974.1493-1.16686.01495-1.04233-.00824-2.08515-.00341-3.12771.00616-1.327.33295-2.70854-.90393-3.80241.58143-.15128.591.46394,1.079.2742a15.70921,15.70921,0,0,0-.77788-6.74922,3.37811,3.37811,0,0,1,1.33093,2.79035c.087.82636.0341,1.66668.06316,2.50012.02564.735.03787.73458,1.07273.70145C366.55653,54.48715,367.65671,57.2292,367.30887,59.98714Z"/><path class="cls-1" d="M361.66927,55.3128c2.1536-5.044,2.13473-5.35431-.39555-7.51442a1.7444,1.7444,0,0,1,2.57638,1.5407,9.11028,9.11028,0,0,1-.86136,4.14358,5.44432,5.44432,0,0,0-.63608,1.71323c2.79358,1.57711,2.58612,4.03307,1.839,6.63387a2.55587,2.55587,0,0,1-.13654.39374c-.895,1.88175-1.52022,3.77267-.26809,5.75777.06347.10061.0235.26641.042.57152-.57049-1.0302-1.05389-1.9205-1.55506-2.80069-.24452-.42943-.03809-.80873.08957-1.1969a25.88764,25.88764,0,0,0,1.21607-4.94979C363.79915,57.80405,363.66505,56.17175,361.66927,55.3128Z"/><path class="cls-1" d="M367.32031,80.199a3.81614,3.81614,0,0,1-2.09084-3.3108,3.01349,3.01349,0,0,0-.6826-1.78325,2.64517,2.64517,0,0,1-.57007-2.13933,2.6566,2.6566,0,0,1,2.11118,2.4128,1.80094,1.80094,0,0,0,.67425,1.32442A2.85574,2.85574,0,0,1,367.32031,80.199Z"/><path class="cls-1" d="M349.79207,25.89071c.37067-.73648.68438-1.48163,1.64428-1.5286a.73693.73693,0,0,1,.80132.53714,2.13041,2.13041,0,0,1-.8993,2.06987A3.88214,3.88214,0,0,1,349.79207,25.89071Z"/><g id="Texto"><text class="cls-2" transform="translate(407.89804 127.65326) scale(0.97 1)">NGENIERÍA</text><text class="cls-3" transform="translate(285.18027 127.65424)">F</text><text class="cls-2" transform="translate(295.76914 127.65326) scale(0.97 1)">ACU<tspan class="cls-4" x="32.61719" y="0">L</tspan><tspan class="cls-5" x="42.2167" y="0">T</tspan><tspan x="51.7704" y="0">AD</tspan></text><text class="cls-2" transform="translate(372.71592 127.65326) scale(0.97 1)">DE</text><text class="cls-3" transform="translate(397.48886 127.65424)">I</text></g><path class="cls-1" d="M337.98972,52.66936a52.67592,52.67592,0,1,1,52.52674,52.6825C361.54254,105.27156,337.83674,81.5886,337.98972,52.66936Zm35.87247-.04992q0,23.229-.019,46.458a1.50329,1.50329,0,0,0,1.19813,1.72946,50.05677,50.05677,0,0,0,25.03749,1.56016,49.32377,49.32377,0,0,0,29.4776-17.47431c9.85338-11.99981,13.50632-25.79982,10.87315-41.105A48.97326,48.97326,0,0,0,423.86234,14.5961,49.60465,49.60465,0,0,0,393.83741,2.18391a48.36761,48.36761,0,0,0-18.42706,2.30985c-1.54014.50156-1.54791.48447-1.548,2.08531Q373.86152,29.59926,373.86219,52.61944Zm-19.96535,8.35649c-1.98636,1.56786-2.11112,2.63686-.59765,4.59117a3.22793,3.22793,0,0,0,.762.85031c2.1232,1.26661,2.75158,3.11877,2.49389,5.50994a2.83859,2.83859,0,0,0,1.79395,2.97073,12.13883,12.13883,0,0,1,6.60213,8.29479,2.34614,2.34614,0,0,1-.21789,1.79911,22.08518,22.08518,0,0,1-3.33109,4.26479c-.27018.28716-.68744.48539-.71632,1.02507a20.75183,20.75183,0,0,0,2.8901.12544,1.93065,1.93065,0,0,0,2.03426-1.06672,47.36883,47.36883,0,0,1,6.066-8.08309c1.43955-1.48656.92568-3.07062.98593-4.92443-1.13052,1.09076-1.745,2.38876-3.13041,2.76607-.77188-2.60515-.88953-4.98337,1.19476-7.03943a2.81621,2.81621,0,0,0,.37451-3.31377,26.067,26.067,0,0,0-1.6475-2.84263c2.77245-2.66669,2.75975-5.90327,1.89735-9.30133a1.82929,1.82929,0,0,1-.02807-1.02469,11.32372,11.32372,0,0,0-1.08285-8.86405,1.3461,1.3461,0,0,1,.08953-1.54,7.112,7.112,0,0,0,1.02431-2.60584,5.031,5.031,0,0,0-2.54386-5.55785,2.05063,2.05063,0,0,0-3.17012,1.62358,12.86133,12.86133,0,0,0,.19653,2.78516c-.4362.3016-1.11721.37225-1.22917.91851-.28415,1.38652-1.48874,1.3851-2.68072,1.99638.44071-.66283.6992-1.06921.97527-1.46326.62966-.89874.92189-1.80792.10706-2.75693-.2766-.32215-.16047-.64209-.04249-.97744a1.62038,1.62038,0,0,0-.77308-2.04952c-.50576-.34291-1.15017-.52366-1.443-1.12309a2.60411,2.60411,0,0,1,.5234-1.03049,8.751,8.751,0,0,0,1.26445-3.39624,2.9191,2.9191,0,0,0-1.32348-3.06709,2.86211,2.86211,0,0,0-3.24559.20628,4.79716,4.79716,0,0,0-1.90466,2.54138,8.28177,8.28177,0,0,0-.29672,4.12038,1.22606,1.22606,0,0,1-.72413,1.56369,5.63746,5.63746,0,0,0-3.188,6.67884c.27311,1.45807.66039,2.89476.98578,4.29733a.72042.72042,0,0,1-.62967.21371c-2.35452.11486-3.06867,1.04021-2.6241,3.37644a16.42431,16.42431,0,0,0,1.61476,4.39045C352.07088,57.55782,352.97942,59.23774,353.89684,60.97593Zm-8.97446,5.49066c1.39475-1.52117,2.61409-2.84073,3.81917-4.17319.27159-.3003.6687-.57562.573-1.05452a9.58741,9.58741,0,0,0-.83606-2.8595c-1.948.47566-3.86442.94478-5.78145,1.41137-2.115.51476-2.23273.76354-1.30537,2.78138.01317.02867.05117.04593.20411.1767l4.84557-1.36184c-1.15334,1.55244-2.41187,2.93051-3.66185,4.31628-.49086.54421-.23147,3.05836.36109,3.45291a.69789.69789,0,0,0,.492.09037c2.38952-.56423,4.7753-1.14427,7.168-1.72216a5.21575,5.21575,0,0,0-.63362-2.50669ZM355.624,88.73616a37.42346,37.42346,0,0,0,4.0973-3.41705,2.69514,2.69514,0,0,0,.49577-3.10773,7.95951,7.95951,0,0,0-3.27547-3.81248,2.803,2.803,0,0,0-2.89176-.20267,33.50954,33.50954,0,0,0-4.50728,3.54231,9.0045,9.0045,0,0,0,1.86007,2.12518c1.20165-.98457,2.32492-1.91316,3.45761-2.83011a1.47536,1.47536,0,0,1,2.22148.068c.99467.9925.98319,1.84956-.12692,2.80376-1.0481.9009-2.12213,1.77166-3.2174,2.68283A8.58537,8.58537,0,0,0,355.624,88.73616Zm-2.86251-60.68994a14.26794,14.26794,0,0,0,1.65475-3.04205,2.55785,2.55785,0,0,0-.92261-2.78741,2.17917,2.17917,0,0,0-2.72134-.01555c-1.78584,1.30093-2.641,3.31348-3.93046,4.9575a40.85436,40.85436,0,0,0,6.588,4.71036,8.42609,8.42609,0,0,0,1.41-2.19174Zm-2.90329,13.135A2.5917,2.5917,0,0,0,348.009,40.805c-.1613.79058-.32764,1.56518-.47653,2.34313-.46253,2.41683-.17931,2.10361-2.44363,1.67081A24.67848,24.67848,0,0,0,341.18444,44.1a5.273,5.273,0,0,0-.49389,1.80171c-.1763.61029.0287.97947.69874,1.11565,2.10978.42881,4.21241.89275,6.31844,1.34008.40589.08621.79062.08056.88876-.43676C349.02187,45.67865,349.43726,43.43472,349.85819,41.18124Zm4.07342,33.44291c-1.25128-2.80922-1.25911-2.76724-2.89431-1.43477a6.87155,6.87155,0,0,0,1.33636,2.25485A3.80467,3.80467,0,0,0,353.93161,74.62415Zm-5.479-36.123a2.81612,2.81612,0,0,0,1.72461.59533,9.41632,9.41632,0,0,0,.81446-2.48029c-1.58782-.93756-1.69693-.90264-2.26986.71189A2.40472,2.40472,0,0,0,348.45265,38.50111Zm11.34894-15.08355a3.14264,3.14264,0,0,0-1.34483-1.288,9.05752,9.05752,0,0,0-1.817,1.91748,3.36,3.36,0,0,0,1.49163,1.36065c.40183-.46508.81156-.93433,1.21509-1.40885C359.50019,23.81813,359.63968,23.62532,359.80159,23.41756ZM346.02747,54.5795c.02865.75869-.21715,1.54488.98729,1.56211,1.19932.01715.98673-.75014,1.0229-1.45626.04228-.82537.01073-1.5002-1.12982-1.49978C345.6909,53.186,346.13239,54.05033,346.02747,54.5795Z"/><path class="cls-1" d="M376.652,52.24284q-.00008-12.6336.00078-25.2672c.00026-1.391.00526-1.39778,1.38471-1.39791q24.597-.0024,49.194-.01985c1.02435-.00166,1.40172.25409,1.38464,1.3408-.05963,3.7926-.05039,7.58717.00176,11.38.01356.98677-.33015,1.22934-1.26649,1.22394q-17.75392-.10229-35.50818-.143c-1.68226-.00578-1.6837-.00042-1.68435,1.64808q-.00165,4.22861.001,8.4572c.002,1.39433.02052,1.41506,1.38854,1.41585,5.70965.00325,11.41948.0257,17.12876-.02024,1.04769-.00843,1.38524.28524,1.36923,1.35143-.05646,3.75788-.04735,7.51755.0026,11.27567.01312.98761-.26741,1.324-1.29058,1.31546-5.63971-.04691-11.28-.02743-16.92006-.02985-1.67659-.00072-1.67874.00058-1.67935,1.63133-.00143,3.75876-.02842,7.51786.01846,11.276.0121.97054-.22929,1.34264-1.272,1.32608q-5.482-.0871-10.96617-.00187c-.99346.01413-1.31249-.26765-1.30809-1.286C376.6679,69.22693,376.65206,60.73485,376.652,52.24284Z"/><path class="cls-1" d="M428.59118,65.05242c.00019,4.20808-.02459,8.4164.01891,12.624.01.96231-.21455,1.34333-1.26388,1.33041-4.3828-.05393-8.76689-.04622-13.14995-.00388-.92513.009-1.183-.28557-1.17989-1.19353q.04458-12.88488.0044-25.77c-.00205-.81755.18554-1.1814,1.09458-1.17367q6.67908.0567,13.35889.00146c.86955-.0066,1.138.2898,1.1317,1.14373C428.57355,56.35793,428.591,60.70525,428.59118,65.05242Z"/><path class="cls-1" d="M420.79959,49.33487c-2.22355.00024-4.44742-.02213-6.67043.01243-.77406.012-1.13385-.17558-1.11224-1.0446.05351-2.152.03833-4.3065.00622-6.45933-.01078-.72265.24451-.971.96854-.9673q6.82679.03453,13.65379-.00019c.74319-.00392.96329.28682.95455.98657-.02691,2.153-.033,4.30689.00283,6.4596.0128.76911-.25958,1.0376-1.02863,1.02538C425.31652,49.31152,423.05786,49.33464,420.79959,49.33487Z"/><path class="cls-1" d="M357.062,42.64546l.81641-3.07868a19.1949,19.1949,0,0,0,.39263,2.70016c.625.16176.825-.46311,1.51178-.69742-3.31234,3.97725-2.76285,8.38887-2.22639,12.95908,1.16883-.55893,1.39481-1.711,2.26729-2.479a2.82562,2.82562,0,0,1-.7726,2.09c-1.727,1.75836-1.36469,3.86988-1.17313,5.97489.24791,2.72443,1.2515,5.27,1.85752,7.90945a16.78181,16.78181,0,0,1,.542,3.49642,7.03674,7.03674,0,0,1-.85142-1.8787,8.76821,8.76821,0,0,1-.44957-1.27856,5.24254,5.24254,0,0,0-3.46874-4.18653,1.03544,1.03544,0,0,1-.79249-.69769c1.094-.04788,1.90863.77473,2.893.91964a1.10712,1.10712,0,0,0-.03322-.99363,16.5469,16.5469,0,0,1-1.00147-6.86594,1.59263,1.59263,0,0,0-.784-1.55645,5.95153,5.95153,0,0,1-2.09911-2.96668c1.066.57038,1.70393,1.48895,2.72176,1.72217.34-.23542.22358-.53485.2234-.797-.0017-2.43567-.05511-4.87245.0049-7.30648a2.80714,2.80714,0,0,0-.9579-2.58777,5.47122,5.47122,0,0,1-.74051-.93646C355.70454,42.244,356.23112,42.72362,357.062,42.64546Z"/><path class="cls-1" d="M367.30887,59.98714c.90132-.36912.83814-1.25814,1.60484-1.454a1.51953,1.51953,0,0,1-.47856,1.07324,5.371,5.371,0,0,0-1.0468,3.41222c.05374,1.80528-.00339,3.614-.02367,5.42118-.00332.296.09817.63873-.26171.85683-.6207-.10342-.44874-.612-.44069-.97782.03283-1.49308.07012-2.98762.17154-4.47716a2.96467,2.96467,0,0,0-1.40719-3.14123c.52549-.15041.875.18669,1.25207-.00681.30337-.33564.1436-.76974.1493-1.16686.01495-1.04233-.00824-2.08515-.00341-3.12771.00616-1.327.33295-2.70854-.90393-3.80241.58143-.15128.591.46394,1.079.2742a15.70921,15.70921,0,0,0-.77788-6.74922,3.37811,3.37811,0,0,1,1.33093,2.79035c.087.82636.0341,1.66668.06316,2.50012.02564.735.03787.73458,1.07273.70145C366.55653,54.48715,367.65671,57.2292,367.30887,59.98714Z"/><path class="cls-1" d="M361.66927,55.3128c2.1536-5.044,2.13473-5.35431-.39555-7.51442a1.7444,1.7444,0,0,1,2.57638,1.5407,9.11028,9.11028,0,0,1-.86136,4.14358,5.44432,5.44432,0,0,0-.63608,1.71323c2.79358,1.57711,2.58612,4.03307,1.839,6.63387a2.55587,2.55587,0,0,1-.13654.39374c-.895,1.88175-1.52022,3.77267-.26809,5.75777.06347.10061.0235.26641.042.57152-.57049-1.0302-1.05389-1.9205-1.55506-2.80069-.24452-.42943-.03809-.80873.08957-1.1969a25.88764,25.88764,0,0,0,1.21607-4.94979C363.79915,57.80405,363.66505,56.17175,361.66927,55.3128Z"/><path class="cls-1" d="M367.32031,80.199a3.81614,3.81614,0,0,1-2.09084-3.3108,3.01349,3.01349,0,0,0-.6826-1.78325,2.64517,2.64517,0,0,1-.57007-2.13933,2.6566,2.6566,0,0,1,2.11118,2.4128,1.80094,1.80094,0,0,0,.67425,1.32442A2.85574,2.85574,0,0,1,367.32031,80.199Z"/><path class="cls-1" d="M349.79207,25.89071c.37067-.73648.68438-1.48163,1.64428-1.5286a.73693.73693,0,0,1,.80132.53714,2.13041,2.13041,0,0,1-.8993,2.06987A3.88214,3.88214,0,0,1,349.79207,25.89071Z"/><g id="Texto-2" data-name="Texto"><text class="cls-2" transform="translate(407.89804 127.65326) scale(0.97 1)">NGENIERÍA</text><text class="cls-3" transform="translate(285.18027 127.65424)">F</text><text class="cls-2" transform="translate(295.76914 127.65326) scale(0.97 1)">ACU<tspan class="cls-4" x="32.61719" y="0">L</tspan><tspan class="cls-5" x="42.2167" y="0">T</tspan><tspan x="51.7704" y="0">AD</tspan></text><text class="cls-2" transform="translate(372.71592 127.65326) scale(0.97 1)">DE</text><text class="cls-3" transform="translate(397.48886 127.65424)">I</text></g><path class="cls-6" d="M95.95548,63.04713c-.30186.11052-4.90731,1.54838-7.01972,2.21029.65545-4.02907.90734-11.1011-.79711-16.12921.5223-.09552.999-.19134,1.39848-.28922a.7902.7902,0,0,0,.59107-.67837c.54934-6.33928-1.14894-13.06155-4.81589-19.75883-3.99586-7.30276-9.19679-13.09889-15.688-15.74623a.77924.77924,0,0,0-.91145.25806c-.37475.5079-.91144,1.21536-1.50458,2.00219A33.36329,33.36329,0,0,0,48.82907,9.62523a34.28194,34.28194,0,0,0-18.306,5.29058c-.50995-.67014-.96141-1.278-1.29031-1.71091a.763.763,0,0,0-.90939-.2516C21.828,15.59418,16.65619,21.099,12.65622,28.40179,8.98279,35.09907,7.27011,41.869,7.82562,48.20618a.75689.75689,0,0,0,.58285.67661c.39944.09141.845.18311,1.33616.281C7.99639,54.15426,7.90675,61.0035,8.52075,64.95556c-.13521-.03527-.26835-.06231-.36829-.09552-5.95836-1.51928-5.97511-1.51928-6.13119-1.51928a.76809.76809,0,0,0-.743.562c-1.50252,5.4922-.34741,24.85954,10.866,39.42567A43.22647,43.22647,0,0,0,35.1641,118.57733c-.55992,1.14482-1.41318,2.76168-1.93959,3.65461a.70458.70458,0,0,0-.01058.641c.0917.2081.331.1934.54963.22485,2.88454.42031,7.58581,1.26122,7.9876,1.28179a1.03422,1.03422,0,0,0,.91145-.31214,11.36362,11.36362,0,0,0,1.53809-3.85213c1.56277.12051,3.694.04144,5.32555.04791h.02293c1.34674,0,3.28427.09141,4.58487.00206a10.96114,10.96114,0,0,0,1.536,3.80216,1.0288,1.0288,0,0,0,.91351.31214c.40179-.02057,4.75152-.91762,7.63812-1.33616.21838-.0291.44735-.01852.55551-.22661a.7284.7284,0,0,0-.01851-.6431c-.51642-.8803-1.34881-2.32051-1.892-3.44035a43.72631,43.72631,0,0,0,22.78475-15.43408C97.33749,87.99221,98.25512,68.0191,96.9939,63.54268Z"/><path class="cls-7" d="M70.04047,20.59319a1.62966,1.62966,0,0,0,.7057.22279.79444.79444,0,0,0,.102.00411,1.40072,1.40072,0,0,0,.65544-.16871,2.48537,2.48537,0,0,0,.741-.664,2.42179,2.42179,0,0,0,.4932-.87207,1.28241,1.28241,0,0,0,.01029-.75537,1.48075,1.48075,0,0,0-.37035-.6431,4.94812,4.94812,0,0,0-.59519-.54934l-.60136-.47674-2.3934,2.97213.5805.46821a4.80608,4.80608,0,0,0,.6722.46205m1.43815-2.9783.14373.1208a1.0392,1.0392,0,0,1,.33507.39738.65143.65143,0,0,1,.075.3915,1.03892,1.03892,0,0,1-.13756.44118,3.18286,3.18286,0,0,1-.32654.48056,1.61057,1.61057,0,0,1-.88265.65574c-.04556.00411-.08112.00411-.12668.00411a1.22322,1.22322,0,0,1-.71805-.283l-.08553-.07906Z"/><polygon class="cls-7" points="72.638 23.151 73.046 22.749 72.089 21.769 72.896 20.97 73.57 21.646 73.974 21.263 73.306 20.576 73.989 19.906 74.892 20.82 75.314 20.414 73.839 18.922 71.102 21.594 72.638 23.151"/><polygon class="cls-7" points="75.604 26.83 76.074 26.477 75.256 25.405 77.849 23.455 77.339 22.799 74.28 25.093 75.604 26.83"/><path class="cls-7" d="M76.00941,27.44008l1.19244-.28716.61194.922-.716,1.00315.487.73686,2.37047-3.35511-.33507-.49526-4.00614.88882Zm2.73259-.63046-.57433.80945-.39326-.59313Z"/><path class="cls-7" d="M79.304,32.922l1.50694-.74509.01851.05643c.09582.14138.16666.29745.24984.4494a1.9824,1.9824,0,0,0,.35152.42678.98051.98051,0,0,0,.48909.23719.5916.5916,0,0,0,.14578.01852,1.04372,1.04372,0,0,0,.49526-.13726.93754.93754,0,0,0,.59108-.95113,1.85814,1.85814,0,0,0-.13932-.51818c-.07907-.15813-.152-.31215-.22691-.45352l-.42031-.83062-.16253.08553s-.41208.20809-.48262.24131l-2.7805,1.41523Zm2.94274-1.4796.13109.24983a.73228.73228,0,0,1,.0917.46175c-.02087.11875-.11669.21456-.2998.30832a.59241.59241,0,0,1-.2995.0873.384.384,0,0,1-.19781-.06672.67228.67228,0,0,1-.17283-.206,1.58373,1.58373,0,0,1-.17488-.30568l-.02263-.04791Z"/><polygon class="cls-7" points="81.104 36.851 81.656 36.627 81.121 35.39 84.111 34.125 83.781 33.353 80.247 34.853 81.104 36.851"/><path class="cls-7" d="M81.40374,37.68381l1.24064.03321.36829,1.03225-.96171.79712.28745.83885,3.15289-2.65558-.1934-.56815-4.10842-.14167Zm2.81812.08318-.75979.63281-.23925-.67014Z"/><polygon class="cls-7" points="85.627 40.135 82.47 40.935 82.657 41.709 85.828 40.916 86.103 41.988 86.653 41.838 85.907 38.912 85.354 39.055 85.627 40.135"/><path class="cls-7" d="M82.95859,42.995l1.21536.23925.16842,1.08869-1.07575.62017.14343.87824,3.55674-2.08949-.09347-.58079L82.85248,42.304Zm2.75756.56609-.85531.49115-.11874-.7013Z"/><path class="cls-7" d="M36.20487,16.1103l1.17774,2.66793.62223-.27864-1.00521-2.24791,2.34961,1.663.65368-.28511-1.48607-3.35893-.60753.27041.91145,2.07508-2.14768-1.52986-.77213.33713.05408.15813s.206.44353.24983.52876"/><path class="cls-7" d="M41.29529,16.12059,42.3005,15.869l.691.96141.843-.21662-2.327-3.18816-.56815.14343-.43089,3.89181.6722-.16842Zm.16224-1.47137.53288.743-.63693.16665Z"/><path class="cls-7" d="M43.86768,15.434a1.87545,1.87545,0,0,0,.38916.60342,1.56309,1.56309,0,0,0,.55786.36417,1.51146,1.51146,0,0,0,.54728.09582c.05,0,.102-.00206.15813-.00617a2.62147,2.62147,0,0,0,.281-.04174c.09581-.025.179-.04585.25189-.06437a1.92775,1.92775,0,0,1,.19545-.052,1.304,1.304,0,0,0,.129-.052l.11462-.05-.09376-.77213-.23719.1499c-.06878.0435-.16665.09963-.26424.15812a1.46245,1.46245,0,0,1-.38738.1164h-.0726a.59754.59754,0,0,1-.29569-.07084.81154.81154,0,0,1-.28921-.25365,1.50149,1.50149,0,0,1-.2081-.43706,2.887,2.887,0,0,1-.11434-.589c-.00852-.19369-.02733-.383-.02733-.54111a1.24127,1.24127,0,0,1,.0626-.36211.429.429,0,0,1,.16019-.204.803.803,0,0,1,.33919-.11463c.08553-.00411.16665-.00411.2416-.00206a1.277,1.277,0,0,1,.22661.02293c.07289.01264.13756.02293.19987.03556.05408.01852.10405.03116.1499.04556l.24337.06878-.08318-.73451-.13521-.01881c-.08729-.00412-.19163-.01264-.333-.01264h-.05408a3.79711,3.79711,0,0,0-.41.025,1.537,1.537,0,0,0-1.176.57021,2.18008,2.18008,0,0,0-.24954,1.3488,2.92629,2.92629,0,0,0,.18311.77419"/><polygon class="cls-7" points="47.943 16.262 47.712 12.606 46.931 12.658 47.173 16.318 47.943 16.262"/><path class="cls-7" d="M49.004,15.72938a1.3197,1.3197,0,0,0,.47469.42678,1.737,1.737,0,0,0,.72627.16224h.11022a1.76536,1.76536,0,0,0,.60137-.12286,1.25188,1.25188,0,0,0,.47879-.39738,1.73435,1.73435,0,0,0,.27276-.59313,3.69473,3.69473,0,0,0,.07054-.743,4.23737,4.23737,0,0,0-.04585-.716,1.67118,1.67118,0,0,0-.23308-.60547,1.25636,1.25636,0,0,0-.47233-.43089,1.51956,1.51956,0,0,0-.70952-.16225,1.81531,1.81531,0,0,0-.72011.1164,1.23834,1.23834,0,0,0-.4788.39326,1.51611,1.51611,0,0,0-.2704.60166,3.64531,3.64531,0,0,0-.075.74509,3.15223,3.15223,0,0,0,.0435.71393,1.63634,1.63634,0,0,0,.2269.61165m.57021-1.30912a4.29977,4.29977,0,0,1,.0291-.51377,1.40432,1.40432,0,0,1,.102-.44147.67273.67273,0,0,1,.21015-.29334.471.471,0,0,1,.30186-.09376h.03115a.50966.50966,0,0,1,.36212.11463.70128.70128,0,0,1,.19163.31009,1.3673,1.3673,0,0,1,.08524.4494c.00852.18517.00852.3436.00852.49526-.00441.15842-.01469.333-.02939.5079a1.79731,1.79731,0,0,1-.10405.43911.66915.66915,0,0,1-.206.28952.44625.44625,0,0,1-.29539.09552h-.04791a.50009.50009,0,0,1-.35182-.11022.73177.73177,0,0,1-.20163-.31214,1.78038,1.78038,0,0,1-.08553-.45382,4.708,4.708,0,0,1,0-.48291"/><path class="cls-7" d="M53.24141,14.03522l1.06547,2.65558.71158.11463L55.591,13.182l-.66809-.102-.35388,2.227-.98228-2.42691-.85325-.1352-.01881.16871s-.06026.4785-.08318.57844l-.44765,2.87631.666.09993Z"/><path class="cls-7" d="M56.11126,17.08642l.70746-.9429,1.00757.29568.09552,1.17569.83679.23954-.36005-3.9212-.55375-.16018-2.39545,3.11556Zm1.60863-2.12711.075.91174-.62841-.18752Z"/><polygon class="cls-7" points="61.264 18.31 60.078 17.796 61.327 14.972 60.582 14.649 59.106 18.006 61.037 18.849 61.264 18.31"/><path class="cls-7" d="M13.34928,46.04821h.01029a1.15775,1.15775,0,0,0,.50584-.11668.996.996,0,0,0,.39121-.3724,2.11515,2.11515,0,0,0,.22044-.69718,1.6128,1.6128,0,0,0-.03733-.75979,1.00188,1.00188,0,0,0-.29128-.487,1.15455,1.15455,0,0,0-.462-.24749,4.66577,4.66577,0,0,0-.47674-.09787l-2.26643-.31832-.10816.70953,2.32462.33507c.1208.01675.23925.03762.34771.05614a.9038.9038,0,0,1,.27041.11463.47648.47648,0,0,1,.14373.204.87489.87489,0,0,1,.02086.41413.50087.50087,0,0,1-.13138.31009.46252.46252,0,0,1-.23925.1352.96472.96472,0,0,1-.31214.025c-.12081-.00411-.22045-.01675-.31009-.025l-2.28935-.32684-.11022.80123,2.26642.29568a5.11356,5.11356,0,0,0,.53288.04791"/><path class="cls-7" d="M11.9464,41.869l2.8575.68895.15195-.65544-2.40368-.57873,2.74493-.84267.17488-.70159L11.8882,38.918l-.152.65545,2.20617.52876-2.53712.77008-.18929.82415.16636.03938s.47263.10846.564.13315"/><polygon class="cls-7" points="15.978 38.227 12.465 37.128 12.227 37.861 15.751 38.966 15.978 38.227"/><polygon class="cls-7" points="16.814 36.052 13.815 33.417 13.582 34.038 15.559 35.777 12.925 35.759 12.621 36.568 16.631 36.55 16.814 36.052"/><polygon class="cls-7" points="18.325 32.483 17.805 32.248 17.258 33.436 16.275 32.987 16.662 32.16 16.165 31.936 15.767 32.752 14.954 32.375 15.468 31.27 14.937 31.026 14.094 32.856 17.434 34.389 18.325 32.483"/><path class="cls-7" d="M18.97463,31.24665l-1.41934-.77419,1.9146-.09582.435-.79065-2.0207.09788a.41386.41386,0,0,0,.02057-.09993,1.2881,1.2881,0,0,0,.01264-.37681.86214.86214,0,0,0-.1352-.358.91.91,0,0,0-.3436-.2851,1.02445,1.02445,0,0,0-.51406-.16224.91752.91752,0,0,0-.42648.11022,1.48669,1.48669,0,0,0-.331.2998,2.939,2.939,0,0,0-.26423.39326l-.54317.95319,3.23813,1.78557ZM17.18907,29.969c-.03968.08524-.08759.16019-.12492.23514l-.843-.47263.09582-.16635a1.14179,1.14179,0,0,1,.13726-.206.43253.43253,0,0,1,.16636-.11669.297.297,0,0,1,.154-.03733h.00646a.45167.45167,0,0,1,.206.06437.51906.51906,0,0,1,.231.20192.45019.45019,0,0,1,.04762.2372.88514.88514,0,0,1-.07671.26041"/><path class="cls-7" d="M17.78631,27.846a.8421.8421,0,0,0,.50349.17077h.03556a1.13863,1.13863,0,0,0,.47233-.11022,2.21694,2.21694,0,0,0,.43089-.2081c.129-.07906.24954-.14784.36829-.20809a1.14881,1.14881,0,0,1,.32684-.09376.35666.35666,0,0,1,.23925.05408.40947.40947,0,0,1,.21015.2998.5762.5762,0,0,1-.129.40149,1.06976,1.06976,0,0,1-.14579.18752c-.05819.05614-.11022.11228-.16224.15608-.06231.05-.10611.09758-.16224.1352a.92978.92978,0,0,1-.152.09141l-.231.13961.61811.408.09582-.08347a.472.472,0,0,0,.102-.09552c.03733-.03763.0873-.08348.13932-.14167.05614-.0582.104-.129.16224-.19546a1.77809,1.77809,0,0,0,.17489-.22691,2.09424,2.09424,0,0,0,.229-.45175,1.33092,1.33092,0,0,0,.09376-.487.94538.94538,0,0,0-.12286-.45969,1.00164,1.00164,0,0,0-.36416-.3871.90815.90815,0,0,0-.54729-.17694,1.36937,1.36937,0,0,0-.49349.09347,2.90354,2.90354,0,0,0-.44529.22279c-.13314.08318-.256.16019-.38092.22485a1.23367,1.23367,0,0,1-.32037.102.31645.31645,0,0,1-.229-.04585.30472.30472,0,0,1-.13314-.21427.58638.58638,0,0,1,.11022-.33742c.0479-.06025.09787-.127.14578-.17665a.98125.98125,0,0,1,.16842-.15636c.06054-.04762.10405-.08112.1499-.12051l.33507-.231-.612-.39768-.102.08965a2.81556,2.81556,0,0,0-.22455.24131,3.03229,3.03229,0,0,0-.283.36417,1.60562,1.60562,0,0,0-.30186.90116.89365.89365,0,0,0,.43089.72216"/><polygon class="cls-7" points="22.254 26.246 19.318 24.023 18.858 24.631 21.784 26.858 22.254 26.246"/><path class="cls-7" d="M23.26382,25.022a5.21294,5.21294,0,0,0,.48909-.61194,1.80258,1.80258,0,0,0,.256-.664,1.33558,1.33558,0,0,0-.12286-.72628,2.86036,2.86036,0,0,0-1.40876-1.2715,1.34924,1.34924,0,0,0-.73274-.05,1.5181,1.5181,0,0,0-.641.32037,5.1605,5.1605,0,0,0-.56168.537l-.50172.54728,2.74522,2.45159ZM21.09116,22.7491a1.10437,1.10437,0,0,1,.39738-.30362.695.695,0,0,1,.37681-.04791.94683.94683,0,0,1,.40179.15813,2.26369,2.26369,0,0,1,.46175.34124,1.55575,1.55575,0,0,1,.5705.86383,1.03944,1.03944,0,0,1-.31861.78036l-.06643.0729-1.946-1.73149Z"/><path class="cls-7" d="M25.22016,22.976l-.42648-1.0925.80123-.68484,1.04871.54758.6578-.55992L23.78406,19.357l-.43471.383,1.34646,3.69195Zm-.93849-2.49538.8221.435L24.6,21.34651Z"/><path class="cls-7" d="M28.19229,20.62434a5.03346,5.03346,0,0,0,.62017-.46,1.47027,1.47027,0,0,0,.42854-.57227,1.20916,1.20916,0,0,0,.07907-.72422,2.24985,2.24985,0,0,0-.37034-.88441,2.75762,2.75762,0,0,0-.639-.71805,1.38393,1.38393,0,0,0-.68454-.24777,1.74944,1.74944,0,0,0-.71188.13961,5.18354,5.18354,0,0,0-.68689.36211l-.6284.39533,1.98543,3.09469Zm-1.48812-2.76991a1.12108,1.12108,0,0,1,.46616-.179.79461.79461,0,0,1,.3768.05409,1.01677,1.01677,0,0,1,.34948.256,4.10909,4.10909,0,0,1,.34565.44529,1.51189,1.51189,0,0,1,.3142.98434,1.02156,1.02156,0,0,1-.51407.68072l-.08759.0435-1.40259-2.1853Z"/><path class="cls-7" d="M50.9791,38.89917c.20193.027.32449.35388,1.11749.358a.83922.83922,0,0,0,.75979-.383c.03938-.01646.08935-.01646.1205-.07466a1.651,1.651,0,0,0-.88441-.206,2.5045,2.5045,0,0,0-1.27561.24336.5449.5449,0,0,0,.16224.06231"/><path class="cls-7" d="M49.43073,35.61931a2.95477,2.95477,0,0,1,.41825-.08759.64135.64135,0,0,1,.47438.102.49427.49427,0,0,0,.43089.23749.3475.3475,0,0,0,.36006-.22074c.08318-.05.27687.06878.33095.0291a.39959.39959,0,0,0,.23514-.21015c.04791-.07289.129-.204.04791-.29951a2.063,2.063,0,0,0-2.44131.39944c-.052.09994.01264.08112.14373.05"/><path class="cls-7" d="M62.87732,64.15228c-.03762.11463.027.08758.15372.04379a1.75039,1.75039,0,0,1,.77213-.06672c.12286.02293.229.27687.57873.23955.1208-.00647.306-.19576.36417-.33507a1.76572,1.76572,0,0,1,.47027-.19576c.11669-.03115.14373-.204-.0144-.29539a2.01115,2.01115,0,0,0-2.32462.6096"/><path class="cls-7" d="M29.65719,64.85563a.97017.97017,0,0,0-.15813.487c.01058.11257.17694.077.22485.05643.052-.03351.08935-.06672.11669-.08142a.29069.29069,0,0,1,.09758-.01646.19732.19732,0,0,0,.08965.10817.23455.23455,0,0,0,.11845.02292.36989.36989,0,0,0,.17282-.03321.40446.40446,0,0,0,.14138-.24778c.01264-.14578.13961-.17488.24983-.32243.12492-.16459.281-.48938.21868-.50378a1.16937,1.16937,0,0,0-1.2718.53053"/><path class="cls-7" d="M64.91889,67.13881c.1934.01675.31832.32684,1.07164.2998a.81739.81739,0,0,0,.7057-.40179.15489.15489,0,0,0,.10405-.06849,1.5079,1.5079,0,0,0-.83885-.16871,2.48145,2.48145,0,0,0-1.19655.28922.43911.43911,0,0,0,.154.05"/><path class="cls-7" d="M97.93268,62.75586a.77757.77757,0,0,0-.95935-.54317.29769.29769,0,0,0-.09994.03321c-.308.10611-5.00959,1.57131-7.149,2.23733a32.43158,32.43158,0,0,0-.86354-14.94911c.51613-.09582,1.00727-.19987,1.41729-.29569a.775.775,0,0,0,.59313-.6866c.56609-6.45186-1.255-14.06059-4.97814-20.87015-4.0708-7.44032-9.9501-13.01776-16.54981-15.70684a.8046.8046,0,0,0-.94054.26012c-.3724.50583-.91351,1.23006-1.52957,2.0354A32.65655,32.65655,0,0,0,48.53779,9.01123a31.94622,31.94622,0,0,0-17.78368,4.95962c-.52642-.68277-.97817-1.28825-1.303-1.73589a.80816.80816,0,0,0-.93849-.26012c-6.60352,2.68908-12.48076,8.26652-16.56009,15.70684C8.21683,34.49124,6.40834,42.1,6.97443,48.55183a.76616.76616,0,0,0,.60166.6866c.39532.09376.84913.19164,1.35056.2854a31.60219,31.60219,0,0,0-1.00109,14.7513c-.13521-.03527-.27041-.075-.3724-.102-6.06888-1.5422-6.07711-1.5422-6.24582-1.5422a.7881.7881,0,0,0-.75332.57638c-1.51928,5.586-.52641,25.89209,10.87831,40.706a42.3134,42.3134,0,0,0,22.89732,15.3174c-.57226,1.15951-1.20713,2.34137-1.72531,3.24665a.69874.69874,0,0,0-.02087.65368c.102.21015.33507.19545.55992.22485,2.94685.43059,8.54928,1.81878,8.95724,1.84376a1.02177,1.02177,0,0,0,.93026-.32449,11.73136,11.73136,0,0,0,1.5713-3.91267q2.379.18736,4.87645.18723h.025c1.36732,0,2.7076-.052,4.03524-.13932a11.35532,11.35532,0,0,0,1.55455,3.86476,1.01853,1.01853,0,0,0,.9282.32449c.408-.025,6.021-1.41317,8.96165-1.84376.21868-.0294.45176-.0147.55375-.22485a.76568.76568,0,0,0-.01676-.65368c-.52229-.90117-1.14041-2.056-1.69621-3.209a42.01459,42.01459,0,0,0,22.41647-15.37383C98.122,88.30876,99.21271,67.29694,97.93268,62.75586m-8.48726,3.38391a.37761.37761,0,0,1,.32067.14578c.16636.23514-.18723.92-.50378,1.53163-.47233.90351-.95113,1.8273-.3433,2.173a.64086.64086,0,0,0,.32478.06437,2.61085,2.61085,0,0,0,.30157-.01646c.11668-.00852.23543-.01675.34565-.01675.40355,0,.589.12492.67014.435.11639.52436-.11875.83239-.5223,1.27356a6.70175,6.70175,0,0,1-.73275.63487c-.72216.57844-1.54426,1.23006-1.33822,1.89168a.96364.96364,0,0,0,.45382.5267c.17253.13109.31625.22662.34535.46616a6.01541,6.01541,0,0,1-1.32147,1.74589,1.64693,1.64693,0,0,0-.689-.60753.134.134,0,0,1-.01881-.0147l-.1787-.077a.53923.53923,0,0,0-.08965-.02909,27.315,27.315,0,0,0,.44118-7.261c-.01676-.0773-.02087-.1499-.03939-.21867-.05643-.666-.5705-.691-.63075-.09377,0,.05,0,.11258-.00412.1646-.129,1.56719-.59724,4.72831-1.14893,7.58786a3.3256,3.3256,0,0,0-.97582.895c-1.15511-1.85846-1.357-2.46629-1.305-2.63059.07289-.229.22485-.30186.42236-.38915a1.04224,1.04224,0,0,0,.54758-.44558c.32037-.61783-.36858-1.40465-.96994-2.09978a5.91272,5.91272,0,0,1-.60989-.75332c-.27452-.44969-.5076-.82209-.281-1.355a.50488.50488,0,0,1,.51-.333,2.36814,2.36814,0,0,1,.56609.10816,1.19659,1.19659,0,0,0,.62429.06672c.42677-.14784.4497-.62017.32684-1.1989-.06231-.3098-.17077-.65751-.26424-.99875-.20192-.65574-.435-1.40082-.21867-1.59834.22279-.204.53287-.03968.86794.17283a1.653,1.653,0,0,0,.79095.31214.61722.61722,0,0,0,.2851-.06466c.358-.18723.49731-.89705.60753-1.6151.02293-.11228.03557-.21015.052-.26629.14372-.63693.37269-.95319.69512-.9864l.11257.00617h.05614c.49114.10817.55345.79917.54111,1.10309,0,.06642-.01264.179-.02293.306-.0626.70335-.09787,1.41288.21427,1.64419a.5934.5934,0,0,0,.41.14549,1.8711,1.8711,0,0,0,.47468-.08935c.0873-.025.17254-.06672.27041-.08964a2.08549,2.08549,0,0,1,.63046-.152M88.42787,78.54794a.57026.57026,0,0,1,.56815.57432.56919.56919,0,0,1-1.13836,0,.57466.57466,0,0,1,.57021-.57432M85.633,84.66649a1.1645,1.1645,0,0,0,.57432.26453c.5223.14343.86795.27452.80535.73657-.08524.57873-.48086.78476-.94907,1.024a7.18726,7.18726,0,0,1-.90528.331c-.88441.27864-1.89167.60136-1.93753,1.2862a1.019,1.019,0,0,0,.24337.66573.65954.65954,0,0,1,.16254.55375c-.052.204-.85561.67631-2.39957,1.43169a2.13365,2.13365,0,0,0,.06642-.4162,1.545,1.545,0,0,0-.19751-.86148,25.467,25.467,0,0,0,2.91775-6.8513c.18312-.641-.1499-.86383-.41413-.3142a42.40967,42.40967,0,0,1-3.38832,6.37868,1.61617,1.61617,0,0,0-.63252-.1164,2.69268,2.69268,0,0,0-1.19685.31832c-.26218-1.54838-.23308-2.05186-.13932-2.16649a.66961.66961,0,0,1,.537-.21839,1.04675,1.04675,0,0,0,.67014-.2269c.51818-.45587.14755-1.44022-.17489-2.29758a7.74209,7.74209,0,0,1-.29127-.92,1.32318,1.32318,0,0,1,.21632-1.36114.5153.5153,0,0,1,.37034-.18106,1.39144,1.39144,0,0,1,.716.34124,1.13133,1.13133,0,0,0,.5702.28511c.6869,0,.75979-1.03225.82622-2.03541.04585-.68865.09581-1.4649.36416-1.57336.30392-.11433.51819.1646.75979.46411.256.32684.51407.66191.922.60988.39532-.04791.77624-.65985,1.13835-1.2862.0582-.09993.11023-.18722.13932-.23925.36211-.54316.67867-.77213,1.00521-.67425l.09171.03733.11639.06466c.34977.29745.16871.9135.05849,1.18391-.02293.06261-.07084.15637-.13109.27482-.31038.639-.59107,1.28208-.38944,1.61921.20809.34771.664.35388,1.08662.36828.51172.00853.81975.03968.89881.3289.08348.27687-.50143.79917-1.00521,1.26327-.76155.67426-1.54426,1.36938-1.10485,1.90843M81.8264,92.64174a.55959.55959,0,0,1-.56815.55551.5698.5698,0,0,1-.57226-.55551.57713.57713,0,0,1,.57226-.57226.567.567,0,0,1,.56815.57226m-4.93023,4.06669a1.19156,1.19156,0,0,0,.45558.44118c.43912.3142.71188.55551.49761.96964-.2854.512-.72452.5661-1.23859.63693a6.79162,6.79162,0,0,1-.97376,0c-.22279-.01058-.44764-.01675-.67219-.01675-.61812,0-1.35292.0626-1.57777.56815a1.066,1.066,0,0,0-.01852.70776.65475.65475,0,0,1-.03762.57638,7.20752,7.20752,0,0,1-2.4369.48908,1.64009,1.64009,0,0,0-.1355-.895l-.06025-.13932A26.4754,26.4754,0,0,0,76.022,94.42731c.39944-.53493.15166-.86148-.283-.42883a46.85336,46.85336,0,0,1-5.96689,5.27177,2.27624,2.27624,0,0,0-.79918-.13109,3.5936,3.5936,0,0,0-.54728.04379c.36211-2.175.60989-2.787.74921-2.87013a.66676.66676,0,0,1,.58049-.025,1.08426,1.08426,0,0,0,.70365.0147c.65133-.25189.64721-1.29884.6431-2.21235a5.63487,5.63487,0,0,1,.04556-.96788c.08141-.52024.15195-.9573.67249-1.20272a.651.651,0,0,1,.2704-.06672c.28511,0,.50378.31008.69718.59107a1.05907,1.05907,0,0,0,.42884.45382.49887.49887,0,0,0,.19751.03938c.54757,0,.92-.845,1.28414-1.66271.28305-.62458.60577-1.34469.90939-1.35292.29157,0,.39356.26835.53082.69718.12081.37681.256.79918.6578.88676.36622.09141.9573-.36446,1.51928-.82444.08523-.07466.16224-.13727.21221-.17254.55345-.40384.95113-.48085,1.20919-.26835l.04144.0435.07907-.07289-.06643.08553.02087.02293c.32037.40355-.102.96964-.30392,1.19861-.04173.04585-.129.12286-.22073.21868-.5076.49114-1.00315,1.00285-.9282,1.38583.07906.39562.4932.562.89293.71805.47439.18106.75538.31215.73451.61195-.01852.29333-.7448.58049-1.38378.83649-.95113.37681-1.92724.76185-1.70651,1.41964m-6.01274,6.29138a.57332.57332,0,1,1-.57844-.56815.57475.57475,0,0,1,.57844.56815m-3.13.93643c.38709.32243.60136.53494.48261.81593-.11433.26835-.89675.30156-1.5857.32449-1.02608.04791-2.07067.08964-2.07067.77624a1.15237,1.15237,0,0,0,.27658.57462c.306.44323.487.75332.13344,1.07575a1.02573,1.02573,0,0,1-.71394.27481,3.06512,3.06512,0,0,1-.66191-.0914,5.92772,5.92772,0,0,1-.90939-.31862,5.45994,5.45994,0,0,0-1.66918-.4641.86075.86075,0,0,0-.64927.23926,1.08264,1.08264,0,0,0-.25189.66808.58844.58844,0,0,1-.2269.52053c0,.00617-.06026.03733-.24749.03733a25.67242,25.67242,0,0,1-4.14369-.86383c.281-.08524.56815-.18106.85736-.27864a28.4657,28.4657,0,0,0,8.03345-3.92737c.5514-.38092.43706-.766-.11022-.512a50.2517,50.2517,0,0,1-8.12721,3.25106c-.2704.08935-.55757.18928-.84267.27658-.00441-.03939-.00441-.07055-.01058-.11434,1.3923-2.61619,1.92107-3.23225,2.11447-3.27369a.662.662,0,0,1,.54522.17253,1.09678,1.09678,0,0,0,.63281.24983H58.646c.691-.03321,1.0346-1.01549,1.33617-1.88344a9.0065,9.0065,0,0,1,.36828-.89293c.254-.45352.46851-.84679,1.049-.90734.46205-.05819.587.29774.72217.80123a1.12116,1.12116,0,0,0,.24983.57667.53716.53716,0,0,0,.358.13726c.47028,0,1.04049-.59519,1.59423-1.17362.4932-.51642,1.01961-1.06164,1.28179-.98669.29774.09581.308.38709.29774.845-.01881.39121-.03115.83238.31215,1.05312a.6282.6282,0,0,0,.34771.08112,4.61216,4.61216,0,0,0,1.36526-.35182,2.153,2.153,0,0,1,.26423-.09553c.62018-.19164,1.0155-.14784,1.203.10816l.04968.07907a.07181.07181,0,0,0,.0044.03115l.01441.0291c.16018.485-.42031.8803-.68455,1.02608-.0626.03116-.16253.07907-.28539.127-.64281.29775-1.28385.61812-1.34234,1.00316-.06231.40149.27687.69306.60166.98022m-18.7598-2.4704c-2.30405,0-4.47466-2.10624-5.611-5.00107a21.42135,21.42135,0,0,1,3.63992-1.29237c.35183.17694,1.13219.50555,1.13219.52641V99.3014c0,.53494,1.65889.62429,2.02511.127.01646-.02087,0-.8803,0-.8803-.24983.24131-.90968.29128-1.01138.01235-.00441-.0144-.01264-2.51185-.01264-2.56182a.49274.49274,0,0,0,.37269-.05408c.129-.07906.16225-.17488.26424-.21221.13726-.05.23513.04556.41619-.04585.08318-.04379.18517-.16224.26218-.19575.11463-.04144.29774.02292.39973-.03116.09552-.04173.19134-.14784.27452-.179.1355-.04173.2998.08318.589-.18517a2.26617,2.26617,0,0,0,1.24681.052s1.26533.55139,1.76676.85942c-1.09045,3.24871-3.259,5.459-5.75438,5.459m1.20272,9.09274c-.81357.025-1.26739.00617-2.08743,0a15.57036,15.57036,0,0,1-.20368-6.75548c1.09456,0,1.39024-.03762,2.29111,0,.43295,1.6004.54552,5.77525,0,6.75548m-3.25694.0291a6.55245,6.55245,0,0,1-2.13122-.2519c-.56815-.49731-1.2568-4.57223.03557-6.21231a4.75313,4.75313,0,0,1,1.89373-.31626c-.58461,1.6295-.75538,4.9949.20192,6.78047m.56609-27.60683c.70336-.44529,2.03746-1.14688,2.87837.07084a11.14338,11.14338,0,0,1,1.45256,3.70223,13.29637,13.29637,0,0,0-5.0572,0c-.129-.42237,1.44638-2.8866,2.3496-3.81892-.86148,0-1.54015.88882-2.04775,1.51722-.27276.04585-.88059-.49937.42442-1.47137m-.19986-2.90129a1.78418,1.78418,0,0,1,3.54851,0,1.5135,1.5135,0,0,1-.03733.27482,5.33166,5.33166,0,0,0-1.71915-.27482,5.66026,5.66026,0,0,0-1.76293.27687,1.5608,1.5608,0,0,1-.0291-.27687m5.67561,11.89616a4.16423,4.16423,0,0,0-2.3352-.99081,5.65222,5.65222,0,0,0-1.60246.48085v-3.977a.67.67,0,0,1,.80123,0c-.02087-.0147-.02087,1.9437-.02087,1.9437a27.05384,27.05384,0,0,1,5.665.65779,20.56486,20.56486,0,0,1-.025,2.235c-.59519-.08318-1.57541-.21633-2.48275-.34947m2.39752,1.16951a14.03482,14.03482,0,0,1-.3436,1.8711c-.716-.2707-1.89785-.68278-1.96457-.67426a1.28179,1.28179,0,0,1-.90527-.077c-.67632-.408-.88441-1.14277-1.51928-1.67535-.68278,0-1.5422.43706-1.9293.36828a.34407.34407,0,0,1-.32243-.40179c.06437-.03321.47233-.19546.48673-.21015a3.47064,3.47064,0,0,1,1.74413-.716,3.69705,3.69705,0,0,1,1.95634,1.06164c.70541.11639,2.30816.38915,2.79725.45352m-7.07-3.65667-.01646,1.16775a4.21771,4.21771,0,0,0-2.18324,1.35674,31.99361,31.99361,0,0,1-3.49649,1.22388,16.53378,16.53378,0,0,1-.12491-1.99807c0-.11228.00852-.84062.00852-.95319a22.575,22.575,0,0,1,5.81258-.79711m-1.67741,3.08235a2.84558,2.84558,0,0,1,1.66918-1.1801s-.00823.57021-.00823.54523a1.91945,1.91945,0,0,0-.485.43294,1.1023,1.1023,0,0,0,.54522,1.02814,3.87005,3.87005,0,0,0,1.85229-.075,9.27391,9.27391,0,0,0,.90734,1.24652c-.256.18752-.41619.07906-.51.102-.12492.03556-.13521.12491-.23514.17282-.09788.0438-.22691.02087-.32684.0582-.11228.03556-.12462.13344-.2372.19781-.17488.0917-.26012-.025-.43294.04791-.129.05-.10816.21632-.40767.12491a5.51713,5.51713,0,0,1-.68895-.28921c-.60783-.31861-.84914-.60989-1.19244-.62253a22.07948,22.07948,0,0,0-4.01261,1.153,12.51824,12.51824,0,0,1-.3433-1.5131c.79271-.30156,3.82921-1.3153,3.90621-1.42963M51.487,103.81956a5.3093,5.3093,0,0,1,1.93341.34153c1.0925,1.06958.78242,5.3091-.09788,6.10621a6.17488,6.17488,0,0,1-1.90637.26424,10.45612,10.45612,0,0,0,.07084-6.712m.04967-1.84788c3.01592-1.536,5.18859-5.79407,5.18859-10.81394,0-4.96991-2.098-8.98017-5.05721-10.46212l1.29855.01675s.60547-.03145.64721-.29568c.03968-.27041-.54728-.42442-.54728-.42442l-1.41729-.39974c-.02292-.05819-.03762-.11639-.05408-.16841l1.22771-.77419s.49966-.358.385-.60372c-.1205-.24748-.69923-.05819-.69923-.05819l-1.45256.45793C51,78.398,50.95412,78.3419,50.9,78.2981l.70335-1.30912s.19369-.4785-.03733-.62635c-.21045-.15812-.57461.19987-.57461.19987L49.9301,77.72378c-.07289-.0291-.16636-.052-.25189-.077l-.19546-1.5234s-.102-.52465-.37063-.52465c-.27247,0-.3724.52465-.3724.52465l-.18929,1.5087a1.67512,1.67512,0,0,0-.26864.07083L47.23925,76.5625s-.38709-.36005-.61606-.204c-.22073.152.01235.63046.01235.63046l.67014,1.2571a2.08027,2.08027,0,0,0-.18106.17488l-1.46314-.46s-.52024-.129-.64074.11433c-.10846.24366.33066.55169.33066.55169l1.20713.76155a1.62659,1.62659,0,0,0-.04144.1937l-1.46931.41s-.58079.154-.54552.42442c.04585.26423.65779.29568.65779.29568l1.357-.01675c-2.98859,1.47754-5.14685,5.49221-5.14685,10.46212,0,5.00106,2.15826,9.24881,5.15714,10.8013a6.6051,6.6051,0,0,0-2.63266.89087c-2.5286-2.22263-4.49757-6.21025-4.93023-11.00528a2.43917,2.43917,0,0,0,1.42141-2.43719,2.65989,2.65989,0,0,0-1.42141-2.40986c.99463-6.39572,5.06544-11.892,10.11853-11.892,5.09071,0,8.85349,5.20094,9.91689,11.84414a2.45082,2.45082,0,0,0-1.18421,2.47246c.09582,2.10183,1.26122,2.46394,1.26122,2.42456-.4015,4.95521-2.38723,8.947-4.87821,11.097a6.07935,6.07935,0,0,0-2.662-.972m-18.08525,1.32764a28.51652,28.51652,0,0,0,8.029,3.92737c.23954.077.46616.154.68895.229a23.5885,23.5885,0,0,1-3.86683.78859.66126.66126,0,0,1-.24571-.025.63562.63562,0,0,1-.23926-.53258,1.06,1.06,0,0,0-.24542-.664.85793.85793,0,0,0-.64956-.23749,5.27883,5.27883,0,0,0-1.66683.46645,7.07345,7.07345,0,0,1-.90969.31626,3.1965,3.1965,0,0,1-.65338.09582.97885.97885,0,0,1-.72628-.283c-.34124-.31449-.16871-.63487.13932-1.08016a1.17045,1.17045,0,0,0,.27687-.56815c-.01029-.68895-1.05723-.73068-2.07714-.768-.69071-.03557-1.46931-.06261-1.58159-.331-.13109-.27687.09376-.50143.4788-.82209.32449-.28511.65956-.57844.60548-.97406-.0582-.385-.69307-.70335-1.34028-1.00315-.1208-.05408-.22691-.1017-.283-.1352-.26218-.13932-.8365-.52436-.69306-1.00316l.06877-.14578c.18723-.27658.58285-.31626,1.21537-.12051.06025.01881.1499.052.256.09347a4.6156,4.6156,0,0,0,1.35909.35594.71086.71086,0,0,0,.35359-.07907c.34154-.21838.32478-.66367.31655-1.05076-.01675-.4644-.00411-.7495.28305-.83886.281-.08729.79917.45588,1.29443.96759.54316.58491,1.1216,1.1801,1.58805,1.1801a.50215.50215,0,0,0,.35565-.13521,1.24309,1.24309,0,0,0,.25806-.57226c.12286-.51407.26247-.85972.72657-.81181.54317.05849.76155.385,1.03225.91174a5.64275,5.64275,0,0,1,.37857.8947c.30186.86589.64722,1.85229,1.33617,1.87315h.03762a1.05043,1.05043,0,0,0,.62634-.23925.66978.66978,0,0,1,.54934-.17488c.20193.04174.7639.69512,2.2873,3.59642-.3724-.1208-.74921-.229-1.1219-.36211a49.82282,49.82282,0,0,1-8.12486-3.25106c-.55551-.254-.666.13109-.11639.512m-5.43813-4.0811a46.784,46.784,0,0,1-5.89605-5.21974c-.43706-.43265-.6722-.1061-.27688.42883a26.25422,26.25422,0,0,0,5.35907,5.64622,1.57987,1.57987,0,0,0-.10817,1.0155,7.57108,7.57108,0,0,1-2.56416-.49731.61108.61108,0,0,1-.04145-.57638,1.03543,1.03543,0,0,0-.01264-.70776c-.22249-.50555-.96141-.56815-1.57953-.56815-.2269,0-.45381.00617-.66808.01675a6.72962,6.72962,0,0,1-.96994,0c-.52024-.07083-.9717-.12492-1.23829-.63693-.231-.41413.04791-.65544.48909-.96964a1.06025,1.06025,0,0,0,.44352-.44353c.2372-.65544-.743-1.04048-1.6921-1.41729-.64516-.256-1.36526-.54316-1.382-.83649-.025-.2998.25189-.43089.72011-.61195.408-.15607.82827-.32243.90528-.71805.06877-.383-.41825-.89469-.92615-1.38378a2.45425,2.45425,0,0,0-.23308-.22073c-.1934-.231-.62017-.79712-.29744-1.19861l.07494-.075c.27453-.229.65956-.13756,1.2092.26423a2.48644,2.48644,0,0,1,.21632.17254,2.97527,2.97527,0,0,0,1.41523.83885.27229.27229,0,0,0,.102-.01441c.39533-.08758.53053-.50995.65545-.88676.13549-.42883.24571-.69512.54963-.69512.29127.00617.60342.72628.88852,1.35086.36211.81769.741,1.66271,1.28,1.66271h.00617a.54738.54738,0,0,0,.206-.03938,1.14492,1.14492,0,0,0,.42442-.45382c.19369-.281.40385-.59107.70776-.59107a.61433.61433,0,0,1,.25395.06672c.52641.24542.59725.68248.68043,1.20272a7.3595,7.3595,0,0,1,.03762.96788c-.00412.91351-.00412,1.96046.6431,2.21235a1.10036,1.10036,0,0,0,.70952-.0147.63938.63938,0,0,1,.56815.025c.154.08317.385.664.7348,2.73464a2.25744,2.25744,0,0,0-.41854-.03116,2.3712,2.3712,0,0,0-.97582.20192m.33919,3.77748a.56816.56816,0,1,1-.56815-.564.56627.56627,0,0,1,.56815.564M13.84042,82.831a25.6088,25.6088,0,0,0,2.91981,6.8513,1.70267,1.70267,0,0,0-.20192.86148,2.04369,2.04369,0,0,0,.07289.41208c-1.55043-.75126-2.35577-1.22359-2.40163-1.42757a.66831.66831,0,0,1,.16431-.55375.93207.93207,0,0,0,.229-.66573c-.03527-.68484-1.04048-1.00756-1.9146-1.2862a6.615,6.615,0,0,1-.91586-.331c-.462-.23926-.86765-.44529-.94055-1.024-.07289-.46205.2663-.59314.79271-.73657a1.06578,1.06578,0,0,0,.5705-.26453c.45352-.539-.333-1.23417-1.09691-1.90843-.50378-.4641-1.08633-.9864-1.00727-1.26327.08318-.28922.39532-.32037.8991-.3289.43912-.0144.87824-.02057,1.08634-.36828.20192-.33713-.07907-.98023-.385-1.6151-.06231-.12256-.11228-.21632-.13726-.27893-.104-.27041-.28951-.88646.07054-1.18391v.00411l.11874-.077.06261-.0291c.33272-.09788.64721.11845,1.0299.67425a1.74354,1.74354,0,0,0,.129.23925c.36446.62635.75567,1.23829,1.14482,1.2862.41.052.67426-.283.91351-.60988.24777-.29951.46851-.57844.75978-.46411.281.10846.32449.88471.37034,1.57336.06467,1.00316.14373,2.03541.843,2.03541a1.13509,1.13509,0,0,0,.55345-.28511,1.416,1.416,0,0,1,.70776-.34124.533.533,0,0,1,.37887.18106c.40561.41619.31214.85325.21427,1.36114a5.82885,5.82885,0,0,1-.29569.92c-.31831.85736-.68248,1.84171-.16636,2.29758a1.02819,1.02819,0,0,0,.67014.2269.67579.67579,0,0,1,.537.21839c.09141.11463.11845.61811-.14373,2.16649a2.6386,2.6386,0,0,0-1.19861-.31832,1.6697,1.6697,0,0,0-.63281.1164,42.05243,42.05243,0,0,1-3.3798-6.37868c-.26629-.54963-.5993-.32684-.42031.3142m3.00094,9.81079a.57021.57021,0,1,1-.57227-.57226.57313.57313,0,0,1,.57227.57226M9.64676,79.68835a.57022.57022,0,1,1,.57432-.56609.56855.56855,0,0,1-.57432.56609m6.84718-5.35906c-.08964-.358-.60988-.72834-.897-.87.07906-.09993.1643-.206.25394-.31008.77419-.89264,1.81467-2.1227,1.71062-3.5441a1.6784,1.6784,0,0,0-.85942-1.48195c-.05408-.02293-.11463-.0435-.17283-.06643.54317-.13344,1.12807-.27893,1.765-.43706a2.31312,2.31312,0,0,0,1.41728-1.13218,2.81941,2.81941,0,0,0,.14755-2.27054,19.1706,19.1706,0,0,1-.99668-6.60382,58.44064,58.44064,0,0,1,10.24344-.83855c.67837,0,.84913-.79712.154-.79712-.62223,0-7.49028-.00823-10.26225-.01058.07084-.42236.14549-.85325.24337-1.28179.32889.00617,1.29648-.00411,1.29648-.00411v-.75156h2.80136l-.00823.66191L24.6,54.59544a4.53117,4.53117,0,0,0,.34771-1.4505,2.09929,2.09929,0,0,0-.16871-.743h2.18118a1.71481,1.71481,0,0,0-.17282.72011,4.28,4.28,0,0,0,.358,1.47783l1.228-.0044v-.43912h1.30677v.47056h.70776l.01029-.68689H31.928v.70747l3.45474.00206.01235,3.45915a5.98635,5.98635,0,0,0-6.27051.0726,5.50272,5.50272,0,0,0-2.38106,2.839,4.94226,4.94226,0,0,0,.04791,3.35893,4.53194,4.53194,0,0,0,2.17061,2.09566c.48908.4497.86589,1.14482,1.23623,1.332.23749.13109.53082-.1352.79711-.1352.1355,0,.22691.22249.46616.358.28305.17253.39768.21427.49115.29128a1.63139,1.63139,0,0,0,.74949.39973,1.34742,1.34742,0,0,0,1.20919-.67455c.12668-.14549.45353.47263.42237.48291a4.13711,4.13711,0,0,0-2.07508,2.13328c-.42031.71805-1.43786,3.01975-1.43786,3.01975a14.16063,14.16063,0,0,0-2.866-1.076,6.07118,6.07118,0,0,0-4.01231,1.636,3.611,3.611,0,0,0-3.43623-.47469,2.057,2.057,0,0,0-1.53163,1.994l-1.05517,1.16951.23719,3.19463-.55551.27041a6.0856,6.0856,0,0,0-.55374-2.6012,1.17666,1.17666,0,0,0-1.63156-.52877,1.92275,1.92275,0,0,0-.5558.34125c.87412-1.27151,1.77116-2.74082,1.6339-3.27781m-.59519-9.06776a1.18051,1.18051,0,0,0-1.33822-1.07369,3.1747,3.1747,0,0,0-1.24476.39121,1.24392,1.24392,0,0,0-.16224.06848c-.08318-1.03225-.55786-2.4078-1.62333-2.73464l-.43911-.06848c-.06672-.00235-.13726,0-.21016.00206l-.04585.00617a1.65389,1.65389,0,0,0-1.16128.63046,2.13682,2.13682,0,0,0-.3142.57667,29.43821,29.43821,0,0,1,1.13218-13.25936c2.6785.435,5.72117.79917,6.50359.86177.027.00206.03968.00206.03968.00206a.81132.81132,0,0,0,.55757-.21015,1.60182,1.60182,0,0,0,.31861-.59754,10.18657,10.18657,0,0,1,1.19861-2.21.88821.88821,0,0,1,1.459.39532.39308.39308,0,0,1-.08759.38709C15.549,54.81,17.58233,62.40609,18.38356,64.72454a1.26809,1.26809,0,0,1-.052,1.022.72813.72813,0,0,1-.4162.36211c-.75537.18312-1.44227.36211-2.08125.512a3.856,3.856,0,0,0,.06466-1.35909M32.0694,30.28935a4.68631,4.68631,0,0,0,.86384,1.09691c.1496.15813.07906.23719-.17283.19957a4.36106,4.36106,0,0,0-1.28-.06025,3.77047,3.77047,0,0,0-1.00521.82827c-.17488.18311-.26012.129-.2269-.12286a3.62551,3.62551,0,0,0,.0335-1.20273,4.64343,4.64343,0,0,0-.85325-1.08633c-.1499-.16254-.08141-.23337.16019-.19163a3.97952,3.97952,0,0,0,1.3006.04585,2.908,2.908,0,0,0,.9573-.74921c.19164-.21221.27276-.17282.22279.11434a2.60594,2.60594,0,0,0,0,1.12807m2.66822,7.95a4.51149,4.51149,0,0,0,.85325,1.10309c.14549.15842.08729.2269-.17283.19781a4.41057,4.41057,0,0,0-1.278-.0582,3.722,3.722,0,0,0-1.00521.82621c-.16842.17077-.256.12051-.22044-.12492a3.6833,3.6833,0,0,0,.02292-1.20066,4.96057,4.96057,0,0,0-.84708-1.08663c-.15607-.1643-.08524-.23308.15813-.1934a4.153,4.153,0,0,0,1.29649.052,2.89677,2.89677,0,0,0,.95112-.74509c.206-.21868.28716-.18106.23514.104a2.55417,2.55417,0,0,0,.00647,1.12572m6.95946-13.846a4.12378,4.12378,0,0,0,.85942,1.099c.14784.1643.07907.23925-.17488.19575a4.67522,4.67522,0,0,0-1.28208-.04791,3.61771,3.61771,0,0,0-1.0008.82c-.17077.17665-.25807.12257-.22485-.12491a3.69668,3.69668,0,0,0,.02909-1.19891,4.96392,4.96392,0,0,0-.85736-1.08427c-.14373-.1643-.08113-.23308.16841-.1934a3.89361,3.89361,0,0,0,1.29884.04144,2.74917,2.74917,0,0,0,.94878-.741c.19781-.21221.27893-.17459.231.11051a2.40185,2.40185,0,0,0,.00441,1.12366m1.04871,11.18017a4.78348,4.78348,0,0,0,.85531,1.101c.15431.15813.08347.231-.1643.19986a4.71353,4.71353,0,0,0-1.28826-.05849,3.81548,3.81548,0,0,0-1.00521.83062c-.16636.16225-.24983.12051-.21633-.13344a3.28218,3.28218,0,0,0,.01646-1.19861,4.64778,4.64778,0,0,0-.84267-1.08427c-.14784-.16019-.0917-.229.1643-.19781a3.92774,3.92774,0,0,0,1.29032.052,2.74565,2.74565,0,0,0,.95936-.74714c.18957-.21221.281-.18106.229.10816a2.48231,2.48231,0,0,0,.00206,1.12807m5.332.56609c-.06026.00411-.78448-.09788-1.66477,1.04489-.34771.46821-.19987,1.27562.02057,1.22565.22074-.04791.98023-.68043.96994-.59313a1.60267,1.60267,0,0,1-.25189.60371c-.104.1499-.72422.49526-.90322.79682-.21838.3624,0,.845-.04791.90763-.07465.11228-.26629.17694-.3142.13109A1.55876,1.55876,0,0,1,45.92807,38.61c.1499-.18723-.539-.66809-.41619-1.38614a1.37449,1.37449,0,0,1,.67631-.972,15.77443,15.77443,0,0,0,1.45462-.8512c1.04077-.82209,1.40494-1.16334,2.23526-1.24652a4.87392,4.87392,0,0,1,1.15511.29334,2.98962,2.98962,0,0,0,2.02923-.02058,1.32776,1.32776,0,0,1,.7157-.19163c.206.03967.33742.31831.3145.95524-.36211-.3433-1.69-.32655-1.78381.1208-.08935.408.19164,2.04569.09376,2.17913-.19986.25365-.358.1934-.70541.06437a.42415.42415,0,0,0-.4497.17488c.01264.09347.31861.13521.44529.1934a.74927.74927,0,0,0,1.02608-.05c.11257-.06437.19987-.06437.22691-.11022.05408-.11228-.10611-.21222-.11022-.485-.01881-.64928-.05-1.41083-.03322-1.46285.02469-.03762.07054-.08347.13109-.04585.0873.06025.13726.17694.34742.18311a.34166.34166,0,0,0,.283-.16871c.03763-.05.35183-.22691.42678-.1643.07906.052,0,.1643-.00647.36417,0,.11668.09582.75332.08759.87618a5.92064,5.92064,0,0,1-1.07193,2.74728,4.30934,4.30934,0,0,1-.44323.70129c-.24778.24131-1.01991.65544-2.62648-.60783-.39533-.31831-.62223-.741-.76155-.741-.09788,0-.13344.281-.13344.487a1.84339,1.84339,0,0,0,.68895,1.03255,3.88757,3.88757,0,0,0,1.01785.62223c.43265.14549.96553.29745,1.37555.4641A10.97169,10.97169,0,0,1,55.44935,43.353a10.01483,10.01483,0,0,1,2.123,4.17279c.308,1.02608.92614,3.76278,1.5857,6.28521.60783,2.35783,1.26327,4.54314,1.2571,4.52227-2.11858,1.67535-1.58159,4.55577-1.64214,5.074-.1643.01058-1.83142-10.7387-3.0509-15.93346a.263.263,0,0,0-.281-.22691c-.1937.00206-.21016.18106-.22485.27482,0,.09141,1.5713,15.71507,1.713,18.03323-2.26025-.24543-2.89924,1.39024-3.62346,1.21125,0,0-.46616.0335-.47439-.80741-.00441-.11639-.29568-9.6794-.57256-15.35913-.1061-2.31639-.12462-4.8012-.23308-7.13023-.00411-.22044-.10169-.47439-.27863-.22867a2.168,2.168,0,0,1-2.583.96347,4.33453,4.33453,0,0,1-2.32462-1.54632c-.2081-.17488-.44118-.03527-.38915.16019a4.21741,4.21741,0,0,0,2.48275,2.51832,4.26285,4.26285,0,0,0,1.57571.331c.08112,1.1072.12051,2.16649.12051,3.54616-1.07164-1.04254-2.54742-1.11337-3.56909-1.71062a7.46377,7.46377,0,0,1-2.41632-2.824s-.17283-.31861-.383-.19576c-.21015.11845-.08318.45588-.08318.45588a7.11853,7.11853,0,0,0,2.37665,3.86682,27.953,27.953,0,0,0,2.66821,1.37555,3.29825,3.29825,0,0,1,1.42757,2.03952,19.84769,19.84769,0,0,1-3.719,4.89907c-1.50282,1.64214-6.356,5.44224-6.23524,4.564.15813-1.10926.17694-3.76484.17694-4.5014,0-3.79393-.21015-5.26354-.1499-7.98554a4.19011,4.19011,0,0,1-2.13122,1.76882c0,.07083.09788,11.8212.09788,12.15216-.50172-.13932-1.37144-1.536-1.76705-2.65352-.0582-.07084.0335-16.64328.14167-16.68707l1.36114-.69277c.05,1.01344.03116,2.60972.03733,3.19668,1.44021-1.77528,2.35607-3.06354,3.97087-3.91062,1.19038-.614,3.3654-.9908,4.24569-1.43609.60989-.53288,1.36732-3.26106,1.4943-4.11666.04791-.32037.077-.69072-.09582-.67837M46.30047,32.5787c.385-1.54632,1.6921-2.10624,2.91775-2.7367a2.19186,2.19186,0,0,0,.80975-.81181c.26424-.43706.13726-1.10514-.24983-.74068a4.79068,4.79068,0,0,1-1.46079.93437,3.88272,3.88272,0,0,0-1.70885,1.14659,4.82379,4.82379,0,0,1,.5558-2.91158,2.17187,2.17187,0,0,1,.79712-.78242c-.19987-1.01138.01646-1.56924.14343-1.59423.2125-.04585.7348.6578,1.05106.9282.306.2663.64721-.06025.42677-.28921-.07083-.06878-.19575-.23308-.308-.36006.06643-.23513.07907-.4497.19546-.40179a2.269,2.269,0,0,1,.7783,1.25916,2.45009,2.45009,0,0,1,.93673.4641c1.3444,1.13424,2.31433,3.38832,2.85956,6.61616-.075-.04173-.21221-.34535-.51407-.34535a2.4558,2.4558,0,0,0-.73069.21838,2.5292,2.5292,0,0,1-1.75441-.04174,3.29414,3.29414,0,0,0-3.71487.97817,4.32394,4.32394,0,0,1-1.39642.84091c-.03733-.231-.1352-.383-.03733-.61606.07907-.22073.32244-.50789.32655-.68483a4.21632,4.21632,0,0,1,.077-1.06958m17.33428,2.99476a4.63185,4.63185,0,0,0,.84914,1.101c.16636.15813.08318.231-.1646.19986a4.65644,4.65644,0,0,0-1.27767-.05849,3.69,3.69,0,0,0-1.00933.83062c-.16665.16225-.24777.12051-.22073-.13344a3.39815,3.39815,0,0,0,.02087-1.19861,4.60275,4.60275,0,0,0-.845-1.08427c-.1499-.16019-.08936-.229.16018-.19781a3.97526,3.97526,0,0,0,1.29884.052,2.73479,2.73479,0,0,0,.947-.74714c.2081-.21221.28922-.18106.24131.10816a2.51351,2.51351,0,0,0,0,1.12807M66.87935,53.045l.99257.00617.00411,1.613h.96171l.0144-3.1426.4206-1.15717.3871,1.15717.00411,1.5713.54728-.34536.50378.33067V51.54248l.383-1.19273.3724,1.19273.00823,3.11762h.70159v-.64722a1.22386,1.22386,0,0,1,.75538-1.02813s.75537.3724.75537,1.02813v.64722h.92409v-.512h.73686l.00206-.6578.96553-.46616.95318.46v1.21742h1.6151c.104.42266.20192.84914.26629,1.26533-2.645.00235-9.794.01058-10.43713.01058-.69924,0-.52024.79712.16224.79712a57.4659,57.4659,0,0,1,10.433.88235,19.48329,19.48329,0,0,1-1.04665,6.6285,3.23429,3.23429,0,0,0,.03321,2.60355,2.68346,2.68346,0,0,0,1.80438,1.23418c.13521.03556.39738.10816.74715.19986A1.792,1.792,0,0,0,80.301,69.6051c-.10845,1.4214.94466,2.65146,1.69593,3.5441.09581.104.179.21015.25806.31008-.27864.14167-.80534.512-.8947.87-.13314.537.76361,2.0063,1.63773,3.27781a1.89653,1.89653,0,0,0-.55551-.34125,1.17983,1.17983,0,0,0-1.63391.52877,6.3315,6.3315,0,0,0-.56168,2.68879,2.30081,2.30081,0,0,0-1.06576-.29569c-.04144,0-.08935,0-.14549.00206a1.6696,1.6696,0,0,0-1.32176,1.08868c-.00823.01029-.00823.01646-.02057.03116a1.93758,1.93758,0,0,0-.79712-.31832,4.432,4.432,0,0,0-.85354-.11051,7.022,7.022,0,0,0,1.75882-9.24235,7.13847,7.13847,0,0,0-9.08451-2.7702,2.29407,2.29407,0,0,1-1.20713-.24748s.35182-.68278.68277-1.44874a6.199,6.199,0,0,0,.49732-2.10183,10.98426,10.98426,0,0,0-.07289-1.63185,10.76989,10.76989,0,0,0-.45147-3.32571A4.26516,4.26516,0,0,0,64.76488,57.326s-.254-1.97074-.41-2.62442c0,0,.69306-.00617,1.77117-.00206V53.94h.75332Zm5.715-17.47154a4.74155,4.74155,0,0,0,.84914,1.101c.16019.15813.08524.231-.16048.19986a4.7286,4.7286,0,0,0-1.28825-.05849,3.68069,3.68069,0,0,0-1.0011.83062c-.17459.16225-.25571.12051-.22044-.13344a3.737,3.737,0,0,0,.025-1.19861,4.97852,4.97852,0,0,0-.85325-1.08427c-.1499-.16019-.0917-.229.154-.19781a4.01215,4.01215,0,0,0,1.30471.052,2.66442,2.66442,0,0,0,.95554-.74714c.19546-.21221.27452-.18106.22455.10816a2.47045,2.47045,0,0,0,.01058,1.12807m9.5254,31.47364c-.57021-.14549-1.11749-.28716-1.60452-.42648-.61194-.1643-.7783-.358-.83885-.47674a1.92643,1.92643,0,0,1,.08553-1.38995c.79506-2.48921,3.07588-9.73584-2.56005-16.533a.933.933,0,0,1,1.52133-.57432c.45176.47233.93467,1.8999,1.41523,2.61178a1.53243,1.53243,0,0,0,.84914.40384s3.64433-.4206,6.302-.84708A29.4681,29.4681,0,0,1,88.35909,62.76a2.166,2.166,0,0,0-.179-.283,1.61282,1.61282,0,0,0-1.16745-.62429l-.03939-.00617c-1.52574-.1355-2.175,1.58158-2.26848,2.80106a1.4377,1.4377,0,0,0-.15842-.06848,3.19982,3.19982,0,0,0-1.25681-.39121,1.1731,1.1731,0,0,0-1.332,1.06958,4.579,4.579,0,0,0,.16225,1.78968m-4.718,22.72862c-.06232.05-.11434.09787-.16842.14784-.02087-.0435-.04791-.102-.07084-.15607a3.24743,3.24743,0,0,0-.691-1.10514,1.17963,1.17963,0,0,0-1.71709-.0582A6.23678,6.23678,0,0,0,73.308,90.94347a2.54916,2.54916,0,0,0-.55962-.47674,3.2083,3.2083,0,0,1-.6578-2.48687c.01676-.45176-.34947-.43294-.68689.19957A14.18375,14.18375,0,0,1,68.62553,92.192c-.86383.85326-2.93039,1.9293-3.34864,1.75853-.08112-.03527,2.083-2.68673,2.33079-4.93846-.03527-.50584-.385-.462-.68248,0A13.58719,13.58719,0,0,1,60.565,94.58956a24.19846,24.19846,0,0,0,.38915-3.0509,2.11176,2.11176,0,0,1-1.67946-2.20206A1.74865,1.74865,0,0,1,60.70642,87.395c-.7013-5.21122-3.04473-9.57124-6.18733-11.93143.0917-1.457-.10405-3.70664,1.84611-5.87313a11.65733,11.65733,0,0,1,3.08853-1.9002,14.46923,14.46923,0,0,0,1.05311,1.66095,3.17,3.17,0,0,1-.204,2.32462,11.324,11.324,0,0,0-.95113,3.45269c-.00646.408.308,1.10926.60548.9573.77213-2.58885,1.80027-5.72529,1.64831-6.7784-.1934-1.14865-1.24858-1.59629-1.34028-2.77844a2.70252,2.70252,0,0,1-.01646-.70952c.00206-.02087.00617-.03116.00617-.04791a4.71814,4.71814,0,0,1,.91968-1.97927,10.58124,10.58124,0,0,0,2.18942-1.37349,9.58967,9.58967,0,0,0,1.49665-1.46931.20527.20527,0,0,1,.03527-.05614c.03115-.06055.06231-.127.08729-.18517.17077-.55169-.40561-1.31765-.358-1.37584.06672-.06026.718.24366.87,1.00315a.87157.87157,0,0,1-.025.63281,6.098,6.098,0,0,1,1.64625,1.03637,1.52822,1.52822,0,0,1,.38915,1.20507c-.69306-.127-1.41729.22661-1.47343.4641a7.29656,7.29656,0,0,0,.11228,1.56278c.00853.13109.0438.385-.00823.44353-.31626.27246-.92-.17077-.947.1934-.00823.11022.25189.06437.358.12491.14784.08524.26864.256.45175.25189.11845,0,.19752-.13755.3871-.29774.1061-.08935.17694-.075.26012-.1499.06642-.05614.0144-.256-.00412-.39532a10.223,10.223,0,0,1-.08759-1.23418c.00853-.05408.09171-.05819.152-.025a.33588.33588,0,0,0,.32067.06878.47965.47965,0,0,0,.24748-.17077c.03968-.05.24572-.39738.2416-.27687a1.705,1.705,0,0,0,.03939.4206,3.68473,3.68473,0,0,1,.0917.85119,5.83907,5.83907,0,0,1-.87412,2.63677c-.13961.24131-.26012.70747-.6578.8074-1.25474.31449-2.67-.74509-3.411-1.54015a2.30488,2.30488,0,0,1-.58284-.72187,3.62212,3.62212,0,0,1,.33507-1.14482c.08964-.23308-.18106-.24983-.41-.06231a1.64127,1.64127,0,0,0-.34948.60548,1.45323,1.45323,0,0,0-.08347,1.10308c.47468,1.09692,1.60892,1.996,1.29267,3.33836-.51819,2.672-.69513,8.96135-1.79821,8.96135-1.278,0-3.411-4.589-3.796-5.18417-.46851-.72217-1.29884-.38093-.70571.72422.32684.63281,2.41427,5.73381,4.54108,5.90428.72217.06878,1.02608-.43059,1.31324-1.41523.42472-1.41288.845-5.16742,1.48812-9.26321a2.67521,2.67521,0,0,0-.17282-1.06958,5.65392,5.65392,0,0,0,2.87014,1.032,4.24937,4.24937,0,0,0,.65338,0A7.02426,7.02426,0,0,0,64.896,77.30553l-.01264-.01264s1.12807,3.80246.86589,5.62124a1.61154,1.61154,0,0,1-1.00315,1.34646c-.45587.30185-.3142.689-.27276.7348.14784.16871.31244.077.94907-.1643,1.33616-.52671,6.02714-2.67645,10.36659-2.41633a3.4583,3.4583,0,0,1,.38474.075c.15843.06231.31656.12257.4788.19957a2.00322,2.00322,0,0,1,.73686.76185,5.19111,5.19111,0,0,1,.31626.70541c.06878.26453.15813.51612.23925.75361.05.2225.09582.43912.13961.6722a1.6833,1.6833,0,0,0-1.05311.485c-.333.47644-.00853,2.19559.37034,3.7084M67.50981,74.83307a5.10845,5.10845,0,0,1-1.86464-.14373,6.01763,6.01763,0,0,1,1.68564-3.62345,7.16068,7.16068,0,0,0,.179,3.76718m6.97827-1.68387c-.10405-.16636-.154-.27041-.2663-.43912a8.45323,8.45323,0,0,0-4.13546-3.26752,6.13471,6.13471,0,0,1,6.23318,1.869c-.17283,1.21537-.83856,3.182-3.78159,4.96168a10.99549,10.99549,0,0,1-2.389,1.11543c-.12286-.179-.24983-.3433-.36211-.52876-.15607-.24542-.29568-.48056-.435-.73657-.06055-.11051-.11257-.2125-.16019-.31008a9.73223,9.73223,0,0,0,2.4951-1.07193c.24571-.1499.24571-.154.47674-.29128.4203-.24572-.254-1.35292-.69307-1.11984-.23514.1208-.23514.129-.485.2707a9.80361,9.80361,0,0,1-2.25584.99669,8.65228,8.65228,0,0,1-.11257-4.41616,8.61469,8.61469,0,0,1,4.64512,3.28838c.13344.21427.24778.41.38533.60548.29951.41825,1.13836-.42236.84062-.92614m1.68563,5.17389a6.05038,6.05038,0,0,0,1.62774-2.95744,6.02748,6.02748,0,0,1-1.60892,4.01467,8.0561,8.0561,0,0,0-.01882-1.05723m-.17664-1.27768c-.01264-.08553-.0438-.18135-.06466-.26453-.02705-.17458-.02705-.09993-.0582-.27687-.06466-.31214-.23514-.24337-.564.09376-.19134.2081-.38092.50378-.333.69924a1.86467,1.86467,0,0,0,.03321.19369c.0438.13109.0729.25807.10405.37887a11.89481,11.89481,0,0,1-1.22359.84061,10.27021,10.27021,0,0,1-1.77323.87207,14.45244,14.45244,0,0,1-1.18215-1.203,10.80208,10.80208,0,0,0,2.23116-1.05929,7.13593,7.13593,0,0,0,3.71487-5.24444.4889.4889,0,0,0,.052.08318,5.72113,5.72113,0,0,1,.562,1.2236,5.209,5.209,0,0,1-1.49841,3.66313m-.49967,2.98624a7.37482,7.37482,0,0,1-.641.43706,6.72374,6.72374,0,0,1-1.02373.485c-.21044-.14578-.47056-.331-.77418-.564a10.052,10.052,0,0,0,1.40464-.72423,7.76857,7.76857,0,0,0,.89088-.61811c.08318.42883.12051.766.14343.98434m-3.463.71188c.27246.18517.53493.34124.76154.47644-.36622.03351-.70541.06878-1.05488.11257a6.21684,6.21684,0,0,1-2.29581-.435,5.99432,5.99432,0,0,0,2.58915-.154m-4.36649-.93026A6.135,6.135,0,0,1,66.484,78.398c-.02087-.03116-.03556-.06878-.05849-.09994a5.90055,5.90055,0,0,0,3.23842.383,12.2618,12.2618,0,0,0,1.31324,1.25505,5.50831,5.50831,0,0,1-3.30925-.12286M68.438,77.0266c.13961.21427.28716.44118.43294.65956a6.18978,6.18978,0,0,1-2.83869-.206,6.19106,6.19106,0,0,1-.42236-1.95193,4.71655,4.71655,0,0,0,2.32256.47439c.08524.19781.18312.39944.28922.59725.06437.1499.14138.281.21633.42677M62.29653,49.94619c1.00932,5.03017,1.31324,7.36537,1.31324,7.36537a6.66429,6.66429,0,0,0-1.09691.09552c-.06643.06467-.59108-4.04141-1.34028-7.05733-1.58365-6.312-2.568-7.62725-4.09579-7.88561a1.17638,1.17638,0,0,0-1.01344.26042c-.09788-.10817-.3289-.231-.40179-.31656,0,0,.28539-2.19559,1.792-2.158,1.80644.04556,3.67549,3.86271,4.84294,9.69616M39.033,89.3366c.03968,1.51722-1.84788,2.20206-1.84788,2.20206a13.1221,13.1221,0,0,0,.26629,3.16964,13.24493,13.24493,0,0,1-6.67847-5.69619c-.2998-.462-.6578-.50584-.691,0,.24748,2.25173,2.41221,4.90319,2.32256,4.93846-.408.17077-2.47863-.90527-3.34041-1.75853a13.973,13.973,0,0,1-2.772-4.01261c-.33713-.63251-.69924-.65133-.69306-.19957a2.963,2.963,0,0,1-1.09486,2.85956,5.90308,5.90308,0,0,0-1.39848-2.23527,1.18911,1.18911,0,0,0-1.72531.0582,3.43649,3.43649,0,0,0-.68866,1.10514.981.981,0,0,1-.07083.15607c-.04791-.05-.10405-.09787-.16254-.14784.37886-1.51281.69953-3.232.37269-3.7084a1.8606,1.8606,0,0,0-1.14688-.49967c.03556-.11845.08965-.24748.13756-.37651.077-.231.1643-.49349.25394-.75567.56815-1.25064,1.34028-2.14357,2.66587-2.05833a25.98467,25.98467,0,0,1,4.3706.84914c4.05817,1.12395,5.76467,1.93547,6.1018,1.97309.487.05408.45176-.28922.30186-.78477a3.39126,3.39126,0,0,1,.11022-2.697c.22073-.5849.64956-1.47783,1.01167-2.21646.85531-1.47342,1.76471-3.41536,2.312-4.44555.42883-.86354.49114-1.44021.09993-1.62127-.4785-.152-1.07164.9429-1.42963,1.65242a24.16636,24.16636,0,0,1-2.70554,4.44144c-.47028.47645-.62429.41208-1.24241.27041-2.49539-.68895-7.813-3.49-8.64128-3.43594a3.67358,3.67358,0,0,1-2.52448-.80945c-.10817.22455-.46616.26012-.52642.11227.06437-.19575.06437-.4932.22691-.60342a2.95548,2.95548,0,0,1,1.18215-.639c.99463-.0626,1.49635.44323,2.67409,1.05929A55.43866,55.43866,0,0,1,31.235,76.989c.68454.1355.82621-.34124.29333-.65956l-.44529-.27687a24.04645,24.04645,0,0,1,2.73053-5.61507c.82415-1.27591,1.7212-.91145,3.10292-1.60657a10.85751,10.85751,0,0,0,2.74111-1.994c2.83869,2.508,3.66049,6.4933,4.19543,8.55986a15.9745,15.9745,0,0,0-6.52446,11.90027A2.16172,2.16172,0,0,1,39.033,89.3366M24.625,79.1784c-.7783-.3289-1.45667-.63046-2.24144-.95113-.95524-.40355-2.03746-.81563-2.97183-1.24446a1.0452,1.0452,0,0,1,.93437-.47233,3.6589,3.6589,0,0,0,2.17061.82621c1.14893-.08759,3.42976,1.24446,4.15633,1.55866a28.89312,28.89312,0,0,1,3.488,1.765,5.577,5.577,0,0,0-1.10308,1.64625s-3.4089-1.0011-5.36112-1.509c-1.65448-.42031-3.01563-.79712-4.35591-1.074-.06437-.21838-.27246-1.72091-.129-1.68152.47233.1061,3.40478,1.09691,3.40478,1.09691s1.40494.48909,1.85229.65339c.75126.27276,1.101-.22044.15607-.614m.47263-4.46819a3.48792,3.48792,0,0,1,1.21742-.83473,5.85762,5.85762,0,0,1,1.2424-.31421c1.0446.383,1.75853.62253,2.79078,1.02608-.20192.42883-.32037.78036-.43706,1.01138-1.62127-.35358-3.0071-.57637-4.81354-.88852m8.90316-10.21258c-.231.09788-.04791.358-.13932,1.28-.0917.96994-.36005,1.7359-1.00756,1.94811-.33066.09787-.46822-.231-.66162-.3871-.09376-.07083-.21221.01881-.30186-.00646-.07906-.04556-.052-.21221-.11433-.24337-.08759-.04585-.25395.03968-.30392.025a.23456.23456,0,0,1-.11227-.127c-.01881-.11434-.09171-.31626-.14785-.306-.08112.075-.17488.152-.2269.19163-.13109.102-.18312.13109-.29128.12492-.12286-.02292-.154-.10434-.26218-.23749-.1834-.20809-.41648-.54934-.55991-.75537-.11052-.16636-.281-.44735-.51819-.48909A2.017,2.017,0,0,1,28.01124,63.913a2.0434,2.0434,0,0,1-.06467-.39767c-.075-.76567.08112-1.49841.37681-1.40876a.08192.08192,0,0,1,.05408.0435c.00412-.00823.00412-.00823.00412,0v.01263a.74472.74472,0,0,1,.00411.28922c.00823.383.01881.62429.14579.75538a.7567.7567,0,0,0,.61194.152,7.56082,7.56082,0,0,1,1.99984.09376.798.798,0,0,0,.90116-.33713,1.29383,1.29383,0,0,1,.80534-.64516c1.01168-.07083,1.69622.72217,2.44337,1.2862,1.00109.75538,3.20285,2.42661,3.20285,2.42661a7.29694,7.29694,0,0,1-2.99064,2.04569,3.05807,3.05807,0,0,0-.95936-1.24857c.0582-.46616.18517-2.49745-.54522-2.48305m8.75767,3.02a10.4226,10.4226,0,0,0,3.27163-1.26739,8.72567,8.72567,0,0,0,3.24019-4.32063c.25394-.78242-.12668-1.36938-.66574-.487-1.33616,2.19147-4.02289,4.89084-6.6723,4.68892a2.25778,2.25778,0,0,1-1.54631-1.04489c4.00408-1.9146,7.52143-5.61712,10.64111-9.844l-.27276,9.49453a18.02089,18.02089,0,0,1-1.37555,2.24555c-1.44021,1.87522-3.40919,3.20492-4.83059,2.19559a12.10547,12.10547,0,0,1-1.78968-1.66065M39.02475,32.48288c.00823.24572-.92,1.08839-.92,1.08839s.14578,5.02634.09993,5.00547a4.68941,4.68941,0,0,0-1.10514.40591c0,.02263.12491-5.38405.12491-5.38405s-.77213-.77859-.78036-1.03871c-.00852-.2663,1.04871-4.17486,1.29237-4.17486.24131,0,1.28414,3.83567,1.28826,4.09785m-.25189,6.92419a.4187.4187,0,0,1,.49731.31214c0,.13932-.1061.2998-.12051.44324-.01058.14784.07907.27687.06026.43088-.0291.154-.16636.36211-.19987.50143-.08318.34154-.08318.56815-.23719.6869a9.62668,9.62668,0,0,1-2.71172,1.34851,7.86939,7.86939,0,0,0-.37475,2.08948c-.052.85355-.00823,1.71914-.06642,2.57445a31.31062,31.31062,0,0,1-.2372,3.46739c-.15607.8656-1.47577,1.4796-2.34137,1.4796-.51818,0,.358-4.31212.42236-4.641a24.57559,24.57559,0,0,1,1.73149-5.86667,5.40947,5.40947,0,0,1,3.57761-2.82634M69.29978,13.65224c12.924,5.64005,20.82225,22.246,20.05218,34.19183-.32479.07907-.68278.13961-1.06135.21251l-.79712.13108-.79711.13727c-1.88962.29979-3.92532.562-5.14685.70129a29.64928,29.64928,0,0,0-.34742-3.61493l-.14372-.78271-.13315-.78654c-2.24556-10.8304-9.74-21.38422-16.17506-24.21027.58285-.768,1.28208-1.69,1.969-2.585.94466-1.23418,1.90637-2.49539,2.58062-3.3945m-20.762-3.08411A31.20958,31.20958,0,0,1,65.895,15.54833c-.14167.18105-.28951.36828-.42471.5558-.95936,1.24241-1.93753,2.53066-2.60355,3.42565a.76441.76441,0,0,0-.11845.69512,7.62647,7.62647,0,0,0,.72216,1.1945c.67014.84267,1.93135,1.79821,1.41729,2.57651a.748.748,0,0,1-.55787.35182A23.35352,23.35352,0,0,0,49.04775,18.564a23.73543,23.73543,0,0,0-14.383,5.0428,6.80372,6.80372,0,0,0-.664.512.73042.73042,0,0,1-.45587-.72011c.04585-.3915.43706-.64515.67866-.92408.20163-.21251.40767-.42472.57432-.639a2.05853,2.05853,0,0,0,.18517-2.30581c-.67631-.88882-1.64625-2.18324-2.60767-3.42565-.21015-.29157-.44117-.57873-.64721-.86383a30.45931,30.45931,0,0,1,16.80963-4.67217M8.48959,47.84407c-.768-11.94583,7.12817-28.55178,20.05629-34.19183.68072.89911,1.64831,2.16032,2.585,3.3945.68043.895,1.38378,1.817,1.96663,2.585-6.43717,2.82605-13.93773,13.384-16.16448,24.21233l-.2851,1.57336a29.44245,29.44245,0,0,0-.358,3.60876c-1.228-.13932-3.28427-.4059-5.18418-.70541l-1.59834-.27893c-.3624-.0582-.7057-.127-1.01785-.19781M7.95671,70.02129c.12286,0,.23955.00823.34977.01675a1.22077,1.22077,0,0,0,.63252-.04791c.589-.333.14372-1.21536-.30157-2.08948a.41824.41824,0,0,0-.05-.08347c-.31215-.61165-.666-1.29649-.49732-1.53163a.38381.38381,0,0,1,.32243-.14578,2.21505,2.21505,0,0,1,.63693.152,2.2384,2.2384,0,0,0,.73657.179.60535.60535,0,0,0,.41207-.14549c.308-.23131.26865-.94084.21251-1.64419-.01264-.127-.02087-.23955-.02087-.306-.00411-.30392.04791-.97406.52024-1.10309l.19134-.00617c.331.03321.54758.35359.689.9864.0147.05614.03116.154.05.26629.11228.718.25189,1.42787.60577,1.6151a.65361.65361,0,0,0,.29539.06466,1.60226,1.60226,0,0,0,.78036-.31214c.34771-.21251.64957-.37681.87412-.17283.21457.19752-.01234.9426-.20809,1.59834-.29539.96553-.60548,1.96869.05408,2.19765a1.19638,1.19638,0,0,0,.62429-.06672,2.29283,2.29283,0,0,1,.57256-.10816.509.509,0,0,1,.49937.333c.231.53288-.00412.90528-.281,1.355a6.35986,6.35986,0,0,1-.60136.75332c-.61606.69513-1.29237,1.48195-.97611,2.09978a1.04923,1.04923,0,0,0,.54316.44558c.19781.08729.35182.16019.42031.38915.052.13726-.0873.66191-1.29649,2.63059a3.07448,3.07448,0,0,0-1.1363-.97817,45.223,45.223,0,0,1-1.00109-7.66928c-.04379-.59724-.44735-.51171-.50349.15608a25.73846,25.73846,0,0,0,.28716,7.41739,1.64731,1.64731,0,0,0-.25394.09787l-.03763.01676a1.60117,1.60117,0,0,0-.68454.6137c-.71393-.77624-1.36115-1.52545-1.33411-1.74589.03322-.23954.17489-.33507.358-.46616a.98921.98921,0,0,0,.44941-.5267c.206-.66162-.61812-1.31324-1.33823-1.89168a6.24418,6.24418,0,0,1-.72833-.63487c-.40591-.44117-.639-.7492-.51819-1.27356.06026-.31008.26424-.435.65133-.435m25.9109,52.36878a12.37052,12.37052,0,0,0,1.6586-2.851c.5558.14343,1.11131.26835,1.67946.38474-.42648.98228-.87823,1.93341-1.29237,2.69937-.77419-.10816-1.46931-.18517-2.04569-.23308m5.074.74715c-.59313-.11022-1.20508-.231-1.80232-.3289a19.43656,19.43656,0,0,0,1.10308-2.6785c.63252.12492,1.26533.23514,1.90843.331a14.15313,14.15313,0,0,1-1.20919,2.67645m3.055.7492c-.52024-.16224-1.12777-.31831-1.77528-.47438a9.48581,9.48581,0,0,0,1.14071-2.7805c.62429.077,1.26739.15607,1.91254.2225a11.50949,11.50949,0,0,1-1.278,3.03238m14.125,0a11.04162,11.04162,0,0,1-1.25886-2.98036c.64721-.05613,1.2859-.13314,1.92283-.21221a9.59289,9.59289,0,0,0,1.11337,2.71819c-.64927.15607-1.25063.31214-1.77734.47438m3.0512-.7492a13.73672,13.73672,0,0,1-1.19038-2.6015c.63663-.104,1.28179-.21632,1.90843-.33918a15.32732,15.32732,0,0,0,1.08839,2.61384c-.60137.09582-1.201.21662-1.80644.32684m5.06955-.74715c-.55963.04791-1.25887.12492-2.031.23308-.41208-.74715-.85972-1.67946-1.27179-2.63265.562-.12286,1.12189-.254,1.67329-.39973a11.24135,11.24135,0,0,0,1.6295,2.7993M95.46845,78.97442c-1.33411,6.41629-4.231,15.79-10.483,23.97542-8.42672,11.04467-20.36432,16.63476-35.48185,16.63476h-.025c-15.93375-.00618-28.31665-5.59009-36.7995-16.61183C6.53737,94.99135,3.82977,85.89243,2.63733,79.65925A49.17757,49.17757,0,0,1,1.81112,64.935a.508.508,0,0,1,.70335-.42883c1.06547.25394,2.60355.666,4.10608,1.04253a1.59914,1.59914,0,0,0-.09553.55992,6.42077,6.42077,0,0,0,.93026,2.5868A2.18236,2.18236,0,0,0,6.269,69.0681a1.67626,1.67626,0,0,0-.57021,1.62333c.14755,1.40671,1.40054,2.42661,2.31845,3.1717.11022.08524.204.17488.30362.256a1.85168,1.85168,0,0,0-.72216,1.01961c-.02263.45381.795,1.40083,1.73589,2.329a1.67247,1.67247,0,0,0-.539,3.10086,1.12214,1.12214,0,0,0-.21221,1.30913A6.45179,6.45179,0,0,0,10.371,83.97548a2.07469,2.07469,0,0,0-.97611.77008,1.64243,1.64243,0,0,0,.04174,1.713c.64515,1.26121,2.17266,1.77734,3.30073,2.15179.127.04174.25189.08553.36828.127-.08524.14578-.17077.35182-.17694.36211a1.40745,1.40745,0,0,0-.127.843c.12286.42237,1.1407.9864,2.27906,1.50458a1.62284,1.62284,0,0,0-.49967,1.19479,1.67317,1.67317,0,0,0,1.64008,1.66683,1.17521,1.17521,0,0,0,.34742,1.022,6.4999,6.4999,0,0,0,2.406,1.36321,2.1874,2.1874,0,0,0-.64927,1.05312,1.66686,1.66686,0,0,0,.62429,1.59187,4.58074,4.58074,0,0,0,3.15083.90763c.24778,0,.4788-.00852.70336-.01264.13755-.00206.27276-.00206.3915-.00823a.6114.6114,0,0,1-.01264.09141,1.792,1.792,0,0,0,.14373,1.14894c.2851.37886,1.62744.564,3.01151.65338a1.66167,1.66167,0,0,0-.2416.87648,1.67911,1.67911,0,0,0,1.688,1.673,1.76548,1.76548,0,0,0,.33918-.025,1.12438,1.12438,0,0,0,.66809,1.24887,6.469,6.469,0,0,0,2.72641.48291,2.015,2.015,0,0,0-.2707,1.21537,1.6803,1.6803,0,0,0,1.12806,1.29237,3.06565,3.06565,0,0,0,1.21537.23719,7.94025,7.94025,0,0,0,2.7076-.66161c.13726-.05644.25394-.1064.37269-.14785a.60684.60684,0,0,1,.01029.08318,1.91931,1.91931,0,0,0,.53287,1.05106,1.13933,1.13933,0,0,0,.59931.11022,24.17418,24.17418,0,0,0,5.09688-1.13218A4.44475,4.44475,0,0,0,44.6357,111.674c.58255.36417,8.19128.33507,8.76178.03115a2.56885,2.56885,0,0,0,.77213-.68248c.00412-.00617.00823-.00617.02058-.01264a5.82847,5.82847,0,0,0,.98669-2.43073,23.72609,23.72609,0,0,0,4.9655,1.10309,1.04915,1.04915,0,0,0,.60577-.12286,1.73271,1.73271,0,0,0,.51-1.02814c.00823-.03527.02057-.06642.025-.09141.12051.03939.24131.0873.37034.13727a7.94619,7.94619,0,0,0,2.71172.664,2.966,2.966,0,0,0,1.21977-.2416,1.63568,1.63568,0,0,0,1.1216-1.2859,2.00939,2.00939,0,0,0-.27247-1.22183,6.3361,6.3361,0,0,0,2.73259-.47645,1.1245,1.1245,0,0,0,.63252-1.41523,1.73079,1.73079,0,0,0,.50583.075,1.67387,1.67387,0,0,0,1.4361-2.56622c1.3006-.09788,2.52214-.27893,2.79078-.6431a1.81657,1.81657,0,0,0,.13726-1.15511.19647.19647,0,0,0-.01881-.08524c.1355.00617.2707.00617.40385.00823.22279.00412.45793.01264.70129.01264a4.5615,4.5615,0,0,0,3.14672-.90763,1.64648,1.64648,0,0,0,.6287-1.59187,2.02357,2.02357,0,0,0-.65574-1.05312,6.45553,6.45553,0,0,0,2.41221-1.36321,1.1359,1.1359,0,0,0,.34124-1.05106,1.692,1.692,0,0,0,1.3153-1.63773,1.65305,1.65305,0,0,0-.39944-1.09074c1.23623-.54934,2.37665-1.15276,2.518-1.60863a1.46012,1.46012,0,0,0-.13726-.843,3.92314,3.92314,0,0,0-.179-.36211c.1208-.04145.24161-.08524.38092-.127,1.11338-.37445,2.64941-.89058,3.29457-2.15179a1.64658,1.64658,0,0,0,.04144-1.713,2.14,2.14,0,0,0-.97376-.77008,6.46263,6.46263,0,0,0,1.78145-2.09771,1.08856,1.08856,0,0,0-.13961-1.228,1.67651,1.67651,0,0,0-.57638-3.20492c.92615-.91791,1.72737-1.85229,1.69828-2.3061a1.80527,1.80527,0,0,0-.718-1.01961c.08935-.08113.206-.17077.30391-.256.91762-.74509,2.17061-1.765,2.32462-3.1717a1.68877,1.68877,0,0,0-.57226-1.62333,2.19843,2.19843,0,0,0-1.19038-.37269,6.146,6.146,0,0,0,.92174-2.5868,1.39881,1.39881,0,0,0-.05409-.46615c.24572-.077.46616-.152.64105-.204,1.37995-.42883,2.7555-.85325,3.78158-1.18009a.71644.71644,0,0,1,.98434.42883,51.12962,51.12962,0,0,1-1.20713,14.28721"/><path class="cls-7" d="M110.00755,31.15083V42.56407c0,.45793.01881,1.01991.05643,1.6733a6.11706,6.11706,0,0,0,.43059,1.86492,3.60516,3.60516,0,0,0,1.11132,1.49195,4.0337,4.0337,0,0,0,2.58915.59342,4.99813,4.99813,0,0,0,2.42661-.487,3.36069,3.36069,0,0,0,1.31941-1.28826,4.09456,4.09456,0,0,0,.5223-1.77117c.04379-.64515.07083-1.28825.07083-1.90637v-11.584h2.046V42.77011a18.44126,18.44126,0,0,1-.16048,2.41838,5.18973,5.18973,0,0,1-.76773,2.16238,4.48872,4.48872,0,0,1-1.88579,1.57336,8.465,8.465,0,0,1-3.57114.60371,10.93274,10.93274,0,0,1-4.027-.5267,3.7224,3.7224,0,0,1-1.76088-1.44639,5.08708,5.08708,0,0,1-.67426-2.1562c-.07906-.82181-.11228-1.70651-.11228-2.66381l-.05408-11.584Z"/><polygon class="cls-7" points="124.047 31.151 127.55 31.151 135.194 45.79 135.238 45.79 135.238 31.151 137.421 31.151 137.421 49.222 134.855 49.222 126.278 33.166 126.222 33.166 126.222 49.222 124.047 49.222 124.047 31.151"/><rect class="cls-7" x="141.11732" y="31.14877" width="2.25996" height="18.07114"/><polygon class="cls-7" points="145.95 31.18 148.749 31.18 153.831 45.199 153.887 45.199 158.655 31.151 160.651 31.18 154.376 49.22 152.743 49.22 145.95 31.18"/><polygon class="cls-7" points="172.452 49.222 163.003 49.222 163.003 31.151 172.225 31.151 172.225 32.591 165.28 32.591 165.28 38.989 171.854 38.989 171.854 40.508 165.28 40.508 165.28 47.665 172.452 47.665 172.452 49.222"/><path class="cls-7" d="M186.61805,49.222h-2.40369l-4.52462-8.56632h-1.698V49.222h-2.41632V31.15112h4.88438a14.715,14.715,0,0,1,2.2479.21427,5.10761,5.10761,0,0,1,1.84788.65956,3.252,3.252,0,0,1,1.24241,1.3488,4.94066,4.94066,0,0,1,.45587,2.27054,4.56032,4.56032,0,0,1-.72628,2.64941,4.70031,4.70031,0,0,1-1.57747,1.44432,9.04391,9.04391,0,0,1-1.894.716Zm-8.62629-10.14791h1.39642c.55551,0,1.0781-.0291,1.60657-.0729a4.1696,4.1696,0,0,0,1.40259-.3912,2.43012,2.43012,0,0,0,1.01168-.96348,4.6886,4.6886,0,0,0,.36417-2.00219,2.99318,2.99318,0,0,0-.90734-2.47863,3.84812,3.84812,0,0,0-2.47246-.72422h-2.40163Z"/><path class="cls-7" d="M198.53713,33.14685a8.98353,8.98353,0,0,0-4.077-.85943,4.20306,4.20306,0,0,0-2.52037.72217,2.402,2.402,0,0,0-.88029,1.96045,2.51069,2.51069,0,0,0,.65133,1.77734,7.2486,7.2486,0,0,0,1.59628,1.28179,23.36644,23.36644,0,0,0,2.0645,1.11572,17.69241,17.69241,0,0,1,2.07714,1.14453,5.48581,5.48581,0,0,1,1.59834,1.58805,4.39762,4.39762,0,0,1,.6431,2.46424,4.89654,4.89654,0,0,1-.52876,2.362,4.52344,4.52344,0,0,1-1.407,1.6004,5.80822,5.80822,0,0,1-2.01865.91585,9.90068,9.90068,0,0,1-2.38928.281c-.45764,0-.90734-.01675-1.36938-.05849-.45352-.04967-.88235-.09758-1.25916-.15813-.37651-.06025-.70952-.1205-.98434-.18311a5.42761,5.42761,0,0,1-.56815-.13932V47.00757a9.89207,9.89207,0,0,0,4.5496.98434c2.32462,0,3.65462-1.2424,3.65462-3.234a2.57119,2.57119,0,0,0-.63281-1.80232,8.54526,8.54526,0,0,0-1.561-1.26974,19.565,19.565,0,0,0-1.99984-1.12366,13.64684,13.64684,0,0,1-2.01042-1.21125,6.841,6.841,0,0,1-1.56718-1.6004,4.11036,4.11036,0,0,1-.62223-2.34137,3.96213,3.96213,0,0,1,1.55043-3.3798,6.76266,6.76266,0,0,1,4.14164-1.16128,15.83405,15.83405,0,0,1,2.29141.14343,11.47091,11.47091,0,0,1,1.57747.30186Z"/><rect class="cls-7" x="202.45186" y="31.14877" width="2.2579" height="18.07114"/><path class="cls-7" d="M207.97728,31.15112h2.91364a26.99758,26.99758,0,0,1,3.80657.31009,7.05762,7.05762,0,0,1,3.03,1.20478,5.98722,5.98722,0,0,1,1.97926,2.63089,12.03676,12.03676,0,0,1,.72011,4.58252,14.10877,14.10877,0,0,1-.73863,5.255,5.95147,5.95147,0,0,1-2.04187,2.61619,7.39282,7.39282,0,0,1-3.07588,1.18627,23.21029,23.21029,0,0,1-3.7857.2851h-2.80754Zm2.29347,16.67443h1.34851a5.92856,5.92856,0,0,0,4.62455-1.69827q1.52942-1.70445,1.52957-6.17293a13.89175,13.89175,0,0,0-.27453-2.89894,7.45312,7.45312,0,0,0-.91174-2.38517,4.196,4.196,0,0,0-1.77117-1.60863,6.42244,6.42244,0,0,0-2.80723-.53288h-1.738Z"/><path class="cls-7" d="M222.835,49.21991l-1.99807-.02292,6.44333-18.04587h1.51928L235.428,49.197h-2.6929c-.17283-.462-.37681-1.02608-.60989-1.67947-.23719-.65779-.4641-1.28208-.68454-1.88579-.26453-.68866-.52876-1.40671-.81386-2.16649h-5.742Zm7.43385-7.07-2.44748-6.97181h-.05l-2.4704,6.97181Z"/><path class="cls-7" d="M237.50517,31.15112h2.90747a27.0111,27.0111,0,0,1,3.80422.31009,6.99518,6.99518,0,0,1,3.03032,1.20478,6.00838,6.00838,0,0,1,1.99161,2.63089,12.09827,12.09827,0,0,1,.70982,4.58252,14.02366,14.02366,0,0,1-.73686,5.255A6.036,6.036,0,0,1,247.164,47.7506a7.26023,7.26023,0,0,1-3.0656,1.18627,23.34916,23.34916,0,0,1-3.78776.2851h-2.80548Zm2.28318,16.67443H241.143a5.93628,5.93628,0,0,0,4.62661-1.69827q1.52634-1.70445,1.52751-6.17293a14.63932,14.63932,0,0,0-.26864-2.89894,7.13166,7.13166,0,0,0-.92585-2.38517,4.114,4.114,0,0,0-1.77117-1.60863,6.35916,6.35916,0,0,0-2.80548-.53288h-1.73766Z"/><polygon class="cls-7" points="107.725 58.887 111.227 58.887 118.869 73.522 118.919 73.522 118.919 58.887 121.096 58.887 121.096 76.96 118.53 76.96 109.958 60.893 109.903 60.893 109.903 76.96 107.725 76.96 107.725 58.887"/><polygon class="cls-7" points="175.773 58.887 179.276 58.887 186.914 73.522 186.972 73.522 186.972 58.887 189.155 58.887 189.155 76.96 186.572 76.96 178.006 60.893 177.948 60.893 177.948 76.96 175.773 76.96 175.773 58.887"/><path class="cls-7" d="M125.52716,76.89757l-2.00013-.01675,6.4351-18.04587h1.52751l6.61822,18.04587h-2.6785c-.18311-.46-.38092-1.02608-.614-1.67947-.2372-.64721-.46616-1.27591-.69718-1.87933-.256-.69306-.5223-1.41317-.79712-2.17707H127.577Zm7.42356-7.06351-2.4413-6.968h-.04586l-2.47246,6.968Z"/><path class="cls-7" d="M193.57957,76.89757l-1.99778-.01675L198.02306,58.835h1.52545L206.177,76.88082h-2.68879c-.179-.46-.37886-1.02608-.614-1.67947-.24131-.64721-.46822-1.27591-.69307-1.87933-.25394-.69306-.52847-1.41317-.80123-2.17707h-5.74409Zm7.4362-7.06351-2.4372-6.968h-.05408l-2.4704,6.968Z"/><path class="cls-7" d="M145.87266,75.85474a7.7401,7.7401,0,0,0,2.62443-.42648c.60136-.24572,1.11337-.4788,1.52956-.68072V76.681a4.20245,4.20245,0,0,1-.564.127c-.2807.052-.60754.104-.99669.17076-.37475.05408-.79094.11434-1.24476.15608-.44323.03762-.89469.06466-1.34851.06466a7.356,7.356,0,0,1-3.388-.689,5.29014,5.29014,0,0,1-2.12917-1.90637A8.03248,8.03248,0,0,1,139.24,71.59876a20.44838,20.44838,0,0,1-.32889-3.76894,19.27,19.27,0,0,1,.34535-3.821,8.21726,8.21726,0,0,1,1.15511-2.88865,5.44963,5.44963,0,0,1,2.13328-1.83378,7.65023,7.65023,0,0,1,3.32777-.65338c.385.0291.78889.05408,1.25093.09582.45146.03938.86148.09787,1.24241.15813.37886.05613.70952.11639.98845.16224.27276.0582.46822.09788.56815.129V61.1678c-.41413-.204-.92409-.43059-1.52956-.68454a6.75262,6.75262,0,0,0-2.33726-.41619,3.45459,3.45459,0,0,0-2.46835.68043,4.2515,4.2515,0,0,0-1.2715,1.869,9.30452,9.30452,0,0,0-.52436,2.53066c-.06466.9282-.09993,1.83348-.09993,2.7076,0,.79094.03115,1.67535.08729,2.65969a10.1645,10.1645,0,0,0,.49967,2.63265,4.53174,4.53174,0,0,0,1.25916,1.93547,3.34906,3.34906,0,0,0,2.3349.77213"/><rect class="cls-7" x="153.48169" y="58.84935" width="2.25996" height="18.06262"/><path class="cls-7" d="M165.78552,77.19943a7.35553,7.35553,0,0,1-3.39038-.689,5.35679,5.35679,0,0,1-2.133-1.90637,8.10163,8.10163,0,0,1-1.11161-3.00535,20.83525,20.83525,0,0,1-.33066-3.76894,19.09278,19.09278,0,0,1,.35153-3.821,8.05411,8.05411,0,0,1,1.15511-2.88865,5.41712,5.41712,0,0,1,2.12711-1.83378,7.644,7.644,0,0,1,3.33189-.65338,7.02072,7.02072,0,0,1,3.32366.70541,5.47933,5.47933,0,0,1,2.11241,1.92518,8.03724,8.03724,0,0,1,1.13629,2.89924,18.01122,18.01122,0,0,1,.33919,3.667,19.413,19.413,0,0,1-.35594,3.9065,8.02456,8.02456,0,0,1-1.1363,2.98418,5.25338,5.25338,0,0,1-2.11858,1.82731,7.41913,7.41913,0,0,1-3.30073.65162m0-1.34469a3.327,3.327,0,0,0,2.28523-.73862,4.50343,4.50343,0,0,0,1.25269-1.867,9.62191,9.62191,0,0,0,.51407-2.61795c.07084-.99081.10405-1.92313.10405-2.77638,0-.78683-.0291-1.65654-.08318-2.58063a9.41106,9.41106,0,0,0-.51818-2.56,4.68147,4.68147,0,0,0-1.24887-1.93547,3.232,3.232,0,0,0-2.30581-.77419,3.31777,3.31777,0,0,0-2.27877.743,4.2085,4.2085,0,0,0-1.278,1.869,8.78762,8.78762,0,0,0-.51407,2.53066c-.07906.9282-.11433,1.83348-.11433,2.7076,0,.79094.03115,1.67535.09758,2.65969a10.1786,10.1786,0,0,0,.487,2.63265,4.59569,4.59569,0,0,0,1.26945,1.93547,3.31419,3.31419,0,0,0,2.33109.77213"/><polygon class="cls-7" points="211.018 58.849 211.018 75.409 217.355 75.409 217.355 76.912 208.683 76.912 208.683 58.849 211.018 58.849"/><polygon class="cls-7" points="131.956 104.608 122.501 104.608 122.501 86.538 131.721 86.538 131.721 87.976 124.79 87.976 124.79 94.365 131.359 94.365 131.359 95.886 124.79 95.886 124.79 103.047 131.956 103.047 131.956 104.608"/><path class="cls-7" d="M153.98312,104.60638l-2.00013-.025,6.44333-18.04381h1.52575l6.62233,18.04381h-2.687c-.179-.46822-.37858-1.02814-.61606-1.68358-.23308-.65133-.4641-1.28208-.68866-1.88139-.25806-.68483-.52671-1.41111-.80358-2.16649h-5.7438Zm7.43385-7.0782-2.44748-6.96563h-.0435l-2.47658,6.96563Z"/><path class="cls-7" d="M200.308,104.60638l-2.00836-.025,6.44363-18.04381h1.52751l6.62028,18.04381h-2.69114c-.17459-.46822-.3724-1.02814-.60342-1.68358-.24131-.65133-.47028-1.28208-.69307-1.88139-.26218-.68483-.53082-1.41111-.80123-2.16649H202.354Zm7.42386-7.0782-2.44336-6.96563h-.05l-2.46835,6.96563Z"/><path class="cls-7" d="M224.40394,104.60638l-2.01042-.025,6.44363-18.04381h1.52545L236.987,104.5814h-2.68908c-.17048-.46822-.37857-1.02814-.60754-1.68358-.24366-.65133-.46821-1.28208-.69512-1.88139-.26012-.68483-.52847-1.41111-.80534-2.16649h-5.7441Zm7.42591-7.0782-2.4413-6.96563h-.05l-2.47041,6.96563Z"/><polygon class="cls-7" points="144.947 86.544 144.947 103.104 151.28 103.104 151.28 104.608 142.607 104.608 142.607 86.544 144.947 86.544"/><polygon class="cls-7" points="191.055 86.544 191.055 103.104 197.392 103.104 197.392 104.608 188.722 104.608 188.722 86.544 191.055 86.544"/><path class="cls-7" d="M107.7226,86.53759h2.91158a26.12225,26.12225,0,0,1,3.80422.308,6.99329,6.99329,0,0,1,3.03239,1.20713,5.964,5.964,0,0,1,1.98132,2.62648,12.22108,12.22108,0,0,1,.70952,4.58488,14.09655,14.09655,0,0,1-.73039,5.25266,6.05054,6.05054,0,0,1-2.04158,2.61619,7.46336,7.46336,0,0,1-3.07617,1.18832,23.58851,23.58851,0,0,1-3.78776.28716H107.7226ZM110.00755,103.21h1.34468a5.93125,5.93125,0,0,0,4.63249-1.70444c1.022-1.126,1.52575-3.19052,1.52575-6.16676a14.576,14.576,0,0,0-.26453-2.90511,7.48524,7.48524,0,0,0-.92615-2.38312,4.12062,4.12062,0,0,0-1.77087-1.60245,6.25478,6.25478,0,0,0-2.80136-.54111h-1.74Z"/><polygon class="cls-7" points="224.229 88.123 218.795 88.123 218.795 104.608 216.381 104.608 216.381 88.123 211.085 88.123 211.085 86.538 224.229 86.538 224.229 88.123"/><path class="cls-7" d="M178.077,96.958v7.62343h-2.41015V86.53759h3.57143c.93849,0,1.6151,0,2.52449.04585,3.26311.16019,4.85322,2.32462,4.85322,5.16126,0,2.83457-1.59011,4.99489-4.85322,5.153-.90939.06025-1.586.06025-2.52449.06025Zm0-1.37349h1.01138c.49526,0,1.14041,0,1.66506-.052,2.40575-.181,3.36716-1.70033,3.36716-3.78775,0-2.0936-.96141-3.60671-3.36716-3.78776-.52465-.05409-1.1698-.05409-1.66506-.05409H178.077Z"/><path class="cls-7" d="M18.09228,101.99872a.73614.73614,0,0,0,.32655-.793,2.83594,2.83594,0,0,0-.56815-1.01991l-.614-.75743L14.681,101.45967l.55169.68483,1.05312-.84091.06231.075a3.10484,3.10484,0,0,0,.81592.741.79111.79111,0,0,0,.9282-.1208m-.93878-.57668a1.03907,1.03907,0,0,1-.41619-.35153l-.06437-.06877.72834-.57638.05613.07289a1.10553,1.10553,0,0,1,.2663.49114.35467.35467,0,0,1-.17489.32243c-.15813.12286-.28716.1643-.39532.11022"/><path class="cls-7" d="M19.97984,104.97261a1.77773,1.77773,0,0,0,.57638-1.15305,1.55769,1.55769,0,0,0-.55345-1.19656,1.66337,1.66337,0,0,0-1.201-.564,1.87663,1.87663,0,0,0-1.16128.57667,1.849,1.849,0,0,0-.58285,1.15276,1.58051,1.58051,0,0,0,.55786,1.19244,1.76511,1.76511,0,0,0,1.01785.55786,1.32928,1.32928,0,0,0,.18106.00412,1.79809,1.79809,0,0,0,1.16539-.57021m-.13108-1.42758a1.93382,1.93382,0,0,1-.52671.77625,1.83709,1.83709,0,0,1-.7783.52024.51727.51727,0,0,1-.21221.0147.61575.61575,0,0,1-.39121-.19576.58748.58748,0,0,1-.16254-.60342,1.80955,1.80955,0,0,1,.512-.768,1.96823,1.96823,0,0,1,.78888-.51818.52171.52171,0,0,1,.21016-.01676.59313.59313,0,0,1,.383.19987.56975.56975,0,0,1,.17694.59107"/><path class="cls-7" d="M22.00055,104.50439l-.69512-.63046-2.1809,2.41192.65339.59107.90939-1.00932.102.09376c.179.16636.27276.306.27276.42442a1.36507,1.36507,0,0,1-.21632.58285l-.3145.57638.666.589.435-.843a1.59154,1.59154,0,0,0,.19134-.55757.51193.51193,0,0,0-.07465-.306,1.03841,1.03841,0,0,0,.4203.06437.74705.74705,0,0,0,.60989-1.076,3.29443,3.29443,0,0,0-.7786-.91145m-.04556,1.20714a.3912.3912,0,0,1-.3768.154,1.37246,1.37246,0,0,1-.52436-.32272l-.03556-.03733.60577-.68072.04556.04173a1.4761,1.4761,0,0,1,.38944.46616c.06437.11875.025.23955-.10405.37887"/><polygon class="cls-7" points="23.422 109.187 25.068 107.019 24.363 106.492 22.396 109.081 24.221 110.459 24.552 110.026 23.422 109.187"/><path class="cls-7" d="M24.346,110.52948l.689.41825.75979-.57432.98434.60342-.17283.9138.80946.487.51613-3.48825-.72422-.42854Zm2.54124-.07084-.689-.408.89705-.67631Z"/><polygon class="cls-7" points="32.115 111.069 31.037 114.136 31.878 114.419 32.948 111.36 32.115 111.069"/><polygon class="cls-7" points="35.503 112.706 35.647 112.205 33.399 111.516 32.427 114.621 34.748 115.32 34.904 114.808 33.437 114.365 33.703 113.505 35.037 113.926 35.197 113.428 33.855 113.016 34.086 112.271 35.503 112.706"/><polygon class="cls-7" points="37.591 114.848 36.819 112.5 35.926 112.286 35.143 115.443 35.88 115.62 36.419 113.493 37.233 115.951 38.055 116.149 38.835 113 38.107 112.823 37.591 114.848"/><polygon class="cls-7" points="41.736 116.804 42.609 116.935 43.064 113.72 42.192 113.599 41.736 116.804"/><path class="cls-7" d="M44.45876,113.88429l-1.69,3.0947.81181.08112.42854-.8365,1.15511.11874.23719.90528.947.08935-1.05106-3.35893Zm-.21456,1.87522.50789-.997.281,1.07193Z"/><polygon class="cls-7" points="50.309 114.18 49.539 115.245 48.79 114.18 47.762 114.18 49.012 115.926 49.012 117.422 49.901 117.422 49.901 115.926 51.214 114.18 50.309 114.18"/><polygon class="cls-7" points="65.06 114.067 64.122 111.529 63.302 111.824 64.415 114.879 66.561 114.09 66.382 113.593 65.06 114.067"/><path class="cls-7" d="M66.51723,110.55858l.08318,3.515.73892-.32655-.03968-.93437,1.05518-.4641.65779.66573.85943-.383-2.58474-2.41192Zm.75332,1.72737-.05613-1.1072.77418.79094Z"/><path class="cls-7" d="M71.31843,108.0673a2.77015,2.77015,0,0,0-1.04253.47674l-.82.537,1.7982,2.70965.73657-.49114-.741-1.11984.077-.04556a2.9707,2.9707,0,0,0,.818-.74949.78384.78384,0,0,0-.03733-.91968.76024.76024,0,0,0-.78889-.39768m.13109,1.28a1.26039,1.26039,0,0,1-.39121.37681l-.08112.05-.51818-.77419.08729-.05a1.06509,1.06509,0,0,1,.512-.21045.3457.3457,0,0,1,.2998.19781c.12051.17282.14755.29774.09141.41"/><path class="cls-7" d="M72.42152,107.12676l.79094,3.43182.66573-.47233-.23925-.90734.945-.67866.78036.52024.7639-.5367-3.02-1.83789Zm1.72532,1.08838-.64516.45176-.27687-1.074Z"/><polygon class="cls-7" points="76.24 104.867 75.916 104.467 73.851 106.178 74.186 106.582 74.879 105.999 76.64 108.099 77.316 107.537 75.558 105.441 76.24 104.867"/><path class="cls-7" d="M78.88984,104.04441a.66281.66281,0,0,0-.31832.04173.93433.93433,0,0,0,.09964-.39767.67529.67529,0,0,0-.19751-.49526.69834.69834,0,0,0-.83885-.18723,3.19974,3.19974,0,0,0-.97817.69307l-.6722.6431,2.26231,2.34755.63046-.60578-.93849-.97376.102-.09581c.17488-.1646.31626-.25189.43706-.23926a1.413,1.413,0,0,1,.564.24954l.55991.358.64516-.60548-.81181-.50789a1.62258,1.62258,0,0,0-.54522-.22485m-.895.17488a1.15544,1.15544,0,0,1-.36417.49114l-.0291.03762-.6431-.65573.03968-.03733a1.55973,1.55973,0,0,1,.49937-.35388.3604.3604,0,0,1,.37652.127.37941.37941,0,0,1,.1208.39121"/><rect class="cls-7" x="79.1349" y="101.4533" width="0.88132" height="3.25393" transform="translate(-50.12454 91.43134) rotate(-47.20049)"/><path class="cls-7" d="M79.57879,100.62934l1.64831,3.11556.52024-.6287-.45587-.81151.743-.89088.87823.308.60342-.7201-3.39008-1.01139Zm1.95193.60753-.5076.614-.54964-.98022Z"/><path class="cls-7" d="M41.1351,113.36611c-.11874-.03116-.26659-.06878-.41-.09993a1.40029,1.40029,0,0,0-1.21125.18752,1.79516,1.79516,0,0,0-.5849,1.10485,2.052,2.052,0,0,0-.03733.70776,1.53727,1.53727,0,0,0,.17488.6284,1.51435,1.51435,0,0,0,.41179.48086,1.54,1.54,0,0,0,.614.26835c.05849.00852.12286.01675.19164.02087l.05408.00617c.08318.00441.17047.01675.23308.02087.075.00617.13726.00617.18517.00617a.64527.64527,0,0,0,.13109-.00617l.16224-.02293.15637-.82827-.34154.08524c-.07289.02087-.16019.04173-.27247.07083a1.3058,1.3058,0,0,1-.28951,0l-.03733-.00617a.567.567,0,0,1-.27481-.14167.60656.60656,0,0,1-.16842-.26012,1.63958,1.63958,0,0,1-.0626-.39738,2.17631,2.17631,0,0,1,.05849-.49526c.03732-.16459.075-.31214.1205-.4497a.59014.59014,0,0,1,.127-.26629.25306.25306,0,0,1,.1499-.09993.59439.59439,0,0,1,.29774,0,1.83255,1.83255,0,0,1,.19134.05c.06467.02705.13315.05.18312.077.052.027.1061.04585.1499.075l.04585.027a.91412.91412,0,0,0,.08112.04791l.27893.17694.1352-.80123-.15813-.06466c-.06672-.027-.16665-.06231-.2851-.102"/><path class="cls-7" d="M29.97169,111.19756a.8193.8193,0,0,1,.18105-.23308.34073.34073,0,0,1,.17048-.075.65812.65812,0,0,1,.2851.0582,1.122,1.122,0,0,1,.18311.08759,1.74991,1.74991,0,0,1,.16871.11227,1.09179,1.09179,0,0,1,.12492.10405c.03116.025.05614.04585.07289.0582l.283.26423.29333-.75126-.14578-.102a2.20806,2.20806,0,0,0-.26629-.1499,2.936,2.936,0,0,0-.37887-.18723,1.42912,1.42912,0,0,0-1.21742-.04791,1.82738,1.82738,0,0,0-.80123.96377,2.67729,2.67729,0,0,0-.18517.69512,1.76432,1.76432,0,0,0,.06231.65751,1.33017,1.33017,0,0,0,.31626.53905,1.30823,1.30823,0,0,0,.537.38709c.08317.027.16459.05614.24571.08553.077.01852.16225.0435.231.05408.0479.01441.09346.025.13931.03733l.09376.0147c.03528.00617.06026.00823.06026.00823l.17694.01234.308-.7783-.35183.0147c-.077.00617-.15812.00617-.2704.01234-.0438-.00617-.07495-.00617-.11257-.0144-.06849-.01264-.14755-.03762-.22045-.05644a.58744.58744,0,0,1-.229-.181.60167.60167,0,0,1-.11874-.29333,1.1277,1.1277,0,0,1,.01675-.39533,2.01817,2.01817,0,0,1,.15813-.48908c.0626-.14784.127-.29363.18958-.41208"/><path class="cls-7" d="M55.85319,114.6961a.78068.78068,0,0,0-.52024-.69718,2.8775,2.8775,0,0,0-1.16774-.04791l-.96965.1164.39121,3.22372.88235-.11022-.16842-1.32353.09994-.01675a2.83237,2.83237,0,0,0,1.06134-.308.78469.78469,0,0,0,.39121-.8365m-.99051.48879a1.05538,1.05538,0,0,1-.52876.16871l-.09582.0147-.11228-.91586.09993-.0144a1.14387,1.14387,0,0,1,.55757.03116.36514.36514,0,0,1,.18547.32448.381.381,0,0,1-.10611.39121"/><path class="cls-7" d="M59.31,114.62732a1.72,1.72,0,0,0-.6722-1.099,1.96017,1.96017,0,0,0-2.42867.55375,2.04512,2.04512,0,0,0,.562,2.389,1.63772,1.63772,0,0,0,1.32147.15637,1.7378,1.7378,0,0,0,1.00315-.56815.96652.96652,0,0,0,.09788-.15843,1.70324,1.70324,0,0,0,.11639-1.27356m-1.28414-.64309a1.9538,1.9538,0,0,1,.39973.85119,1.98989,1.98989,0,0,1,.025.93232.55788.55788,0,0,1-.09376.19369.62619.62619,0,0,1-.37445.21839.61717.61717,0,0,1-.60783-.16431,1.9246,1.9246,0,0,1-.383-.84708,1.8316,1.8316,0,0,1-.0291-.93026.47614.47614,0,0,1,.0917-.19575.6579.6579,0,0,1,.37652-.2225.56647.56647,0,0,1,.59519.16431"/><path class="cls-7" d="M60.12387,112.79385l-.90528.2704.94672,3.10528.83885-.24778-.3871-1.29443.13109-.03967a.68224.68224,0,0,1,.49938-.01235,1.29315,1.29315,0,0,1,.38915.4785l.331.57462.8512-.25189-.48292-.81387a1.51725,1.51725,0,0,0-.3912-.4494.55539.55539,0,0,0-.308-.10611.78544.78544,0,0,0,.28951-.31626.66036.66036,0,0,0,.04144-.52465.69206.69206,0,0,0-.65338-.55345,3.4135,3.4135,0,0,0-1.19038.18106m1.01549.67014a.37319.37319,0,0,1-.06437.39943,1.256,1.256,0,0,1-.54757.27482l-.05408.0147-.25807-.868.05-.01881a1.665,1.665,0,0,1,.60989-.09141c.12491.0144.21221.11433.26423.28922"/></svg>